<?xml version="1.0" encoding="utf-8"?>
<!-- Generator: Adobe Illustrator 22.0.1, SVG Export Plug-In . SVG Version: 6.00 Build 0)  -->
<svg version="1.1" xmlns="http://www.w3.org/2000/svg" xmlns:xlink="http://www.w3.org/1999/xlink" x="0px" y="0px"
	 viewBox="0 0 35.2 34" style="enable-background:new 0 0 35.2 34;" xml:space="preserve">
<style type="text/css">
	.st0{fill:#FFFFFF;}
	.st1{fill:none;}
</style>
<path class="st0" d="M29.2,25.9c-0.1-0.1-0.3,0-0.3,0c-0.2,0.1-0.3-0.2-0.3-0.2c0-0.1-0.1-0.1-0.2-0.1c-0.1,0-0.1,0-0.2,0.1
	c0,0-0.1,0.1-0.1,0.1l0,0c0,0,0,0.1-0.1,0.1c0,0-0.1,0-0.1,0c-0.1-0.1-0.1-0.1-0.1-0.2c0,0,0,0,0,0c0-0.1,0-0.1,0-0.2
	c0-0.1-0.1-0.1-0.1-0.1c-0.1,0-0.2,0.1-0.3,0.2c-0.1,0.2-0.2,0.2-0.3,0.3c0,0-0.1,0.1-0.1,0.1c-0.1,0.1-0.2,0.2-0.4,0.2
	c-0.1,0-0.1,0-0.2,0c-0.1,0-0.1,0-0.2,0c-0.1,0-0.1,0.1-0.1,0.2c0,0.1,0,0.1-0.1,0.3c-0.1,0.1-0.1,0.2-0.2,0.2c0,0,0,0,0,0.1
	c0.1,0,1.2-0.2,1.9-0.4l0.1,0c0.1,0,0.2-0.1,0.3,0c0,0,0,0.1,0,0.2c0,0.1-0.2,0.1-0.6,0.2c-0.4,0-1.4,0.2-1.4,0.2
	c-0.1,0-0.1,0.1-0.1,0.1c0,0,0.1,0.1,0.5,0.2l0.1,0c0.3,0.1,0.5,0.1,0.6,0.2c0,0,0.1,0.2,0.1,0.2c0,0.1,0.1,0.2,0.2,0.2
	c0.1,0,0.1,0,0.2,0c0,0,0.1-0.1,0.1-0.1l0-0.3c0,0,0,0,0,0c0,0,0,0,0,0l0,0.1c0,0,0.1,0.2,0.3,0.2c0.1,0,0.2,0,0.3-0.2l0-0.2
	c0-0.1,0-0.2,0.1-0.2c0.1,0,0.1,0,0.2,0.1c0.1,0.1,0.1,0.1,0.2,0.1c0.1,0,0.1,0,0.2-0.1c0,0,0-0.1,0-0.1c0-0.1,0-0.1-0.1-0.2
	c0,0-0.1-0.1-0.1-0.2c0,0,0,0,0,0c0,0,0-0.1,0.1-0.1c0.1,0,0.3-0.1,0.3-0.4c0,0,0-0.1,0-0.2C29.4,26,29.3,25.9,29.2,25.9z"/>
<path class="st0" d="M27.3,28.2c-0.2,0-0.3,0-0.3-0.1c0,0,0-0.1,0-0.1l0-0.1c0-0.1,0.1-0.2,0-0.3c-0.2-0.2-0.4,0-0.4,0l0,0
	c0,0,0,0,0,0c0,0,0,0,0,0l0,0c0,0,0-0.1-0.1-0.1c-0.1,0-0.2,0-0.2,0.1c0,0.1-0.1,0.1-0.2,0.1c0,0-0.1-0.1-0.1-0.1c0,0,0-0.2-0.1-0.2
	c-0.1,0-0.2,0-0.3,0c-0.2,0.2-0.6,0.3-0.7,0.3c-0.2,0.1-0.3,0.1-0.3,0.1c0,0.1,0.6,0.2,1,0.3c0.2,0.1,0.4,0.1,0.5,0.2
	c0.1,0,0.2,0.1,0.3,0.1l0.1,0l0.1,0c0.1,0,0.2,0,0.2,0.2c0,0.1,0,0.1-0.1,0.2c-0.1,0-0.2,0-0.4-0.1l0,0c-0.2-0.1-0.3-0.1-0.4-0.2
	c0,0.1,0,0.1,0,0.2c0,0,0,0,0,0c0,0,0,0.1,0,0.1c0,0-0.1,0-0.1,0c-0.1,0-0.1-0.1-0.1-0.2l0-0.1c0,0,0,0,0,0c0-0.1,0-0.1,0-0.1
	l-0.1,0c0,0-0.4-0.1-0.4-0.1l-0.4-0.2c0,0,0,0,0,0c0,0,0,0.1,0,0.1l0.1,0.2c0.1,0.2,0.1,0.3,0.1,0.3c0,0.1,0,0.1,0.1,0.2
	c0,0.1,0.1,0.1,0.2,0c0.1,0,0.1-0.1,0.2,0c0.1,0.1,0.1,0.1,0,0.2l0,0.1c0,0.1,0,0.2,0.1,0.3c0,0,0.1,0.1,0.1,0.1
	c0.1,0,0.3,0,0.4-0.1c0.1,0,0.1-0.1,0.1-0.2c0-0.1,0-0.1,0.1-0.2c0,0,0.1-0.1,0.2,0c0.1,0,0.1,0.1,0.2,0.2c0,0.1,0.2,0.3,0.3,0.3
	c0.1,0,0.3-0.1,0.3-0.3c0-0.2,0.1-0.2,0.4-0.2c0.1,0,0.2-0.1,0.3-0.2c0.1-0.1,0.1-0.2,0.1-0.3C27.6,28.2,27.4,28.2,27.3,28.2z"/>
<path class="st0" d="M24.9,27.2c0.2-0.1,0.3-0.1,0.4-0.2c0.1-0.1,0-0.2,0-0.3c0,0-0.1-0.1-0.1-0.2c0-0.1,0-0.1,0-0.1
	c0,0,0.1,0,0.3,0c0.1,0,0.2,0,0.2-0.1c0.1,0,0.1-0.1,0.1-0.3c0-0.1-0.1-0.2-0.2-0.2c0,0-0.1,0-0.1,0c-0.1,0-0.1-0.1-0.1-0.1l0,0
	c0-0.1,0.1-0.1,0.2-0.1c0.1,0,0.2-0.2,0.2-0.3c0-0.2-0.1-0.2-0.3-0.2c-0.1,0-0.1,0-0.1-0.1c0,0,0-0.1,0-0.1l0-0.1l0-0.1l0-0.1
	c-0.1-0.2-0.1-0.2-0.3-0.3c-0.1,0-0.2,0-0.3,0.1c-0.1,0-0.1,0.1-0.1,0.2c0,0.1,0,0.2-0.1,0.3c0,0-0.1,0-0.1,0c0,0-0.1,0-0.1,0
	c-0.1,0-0.2,0-0.2,0.1c-0.1,0.1,0,0.3,0.1,0.3c0.1,0.1,0.1,0.2,0,0.2c0,0-0.1,0.1-0.2,0c-0.1-0.1-0.2-0.1-0.3,0.1
	c-0.1,0.2,0,0.4,0.1,0.5l0,0l0,0c0.1,0.1,0.3,0.3,0.3,0.6c0,0.1,0,0.1,0,0.2C24.1,26.8,24,26.9,24,27c0,0.1,0,0.2,0.1,0.3
	c0,0,0.1-0.2,0.2-0.2c0,0,0,0,0,0c0,0,0.3-0.4,0.3-0.6c0.1-0.2,0.1-0.3,0.2-0.6l0-0.2c0-0.2,0.1-0.4,0.2-0.4c0,0,0.1,0,0.1,0
	c0,0,0,0.1,0,0.2c0,0.1,0,0.3-0.1,0.4c-0.1,0.2-0.1,0.5-0.3,0.8c-0.1,0.2-0.3,0.4-0.4,0.5c0,0-0.1,0.1-0.1,0.1c0,0,0.1,0,0.3-0.1
	C24.6,27.3,24.9,27.2,24.9,27.2z"/>
<path class="st0" d="M23.2,26.2c0,0-0.1,0.1-0.1,0.1c0,0.1-0.1,0.1-0.1,0.1c-0.1,0-0.1-0.1-0.1-0.1c0,0,0,0,0,0c0-0.1,0-0.2-0.1-0.3
	c-0.1,0-0.1,0-0.2,0c0,0-0.1,0-0.1,0.1c0,0,0,0.1,0,0.1c0,0.1,0,0.3-0.2,0.3c-0.1,0-0.1-0.1-0.2-0.1c0-0.1-0.1-0.1-0.2-0.2
	c-0.2-0.1-0.4,0-0.5,0.1c-0.1,0.1-0.1,0.3-0.1,0.5c0.1,0.2,0,0.4,0,0.5c-0.1,0.2-0.2,0.2-0.4,0.2l-0.1,0c-0.2,0.1-0.3,0.2-0.3,0.3
	c-0.1,0.3-0.2,0.3-0.4,0.4c0,0-0.1,0-0.1,0l-0.1,0c-0.1,0-0.2,0.1-0.2,0.1c0,0,0,0,0,0c0.2,0.1,0.8-0.1,1-0.2c0.1-0.1,0.8-0.6,1-0.7
	c0.7-0.5,0.8-0.6,0.9-0.5c0.1,0,0.1,0.1,0.1,0.2c0,0.1-0.1,0.1-0.2,0.2c-0.1,0-0.7,0.4-0.7,0.5c-0.2,0.1-0.3,0.2-0.3,0.3
	c0,0,0.1,0,0.1,0c0.1,0,0.2,0.1,0.3,0l0.1,0c0.2-0.1,0.4-0.3,0.6-0.2c0.1,0,0.2,0.1,0.2,0.2c0.1,0.1,0.1,0.1,0.2,0.1
	c0.1,0,0.1,0,0.2-0.1c0,0,0-0.1,0-0.1c0-0.1,0-0.1-0.1-0.2c0-0.1-0.1-0.1,0-0.2c0,0,0.1,0,0.2,0h0c0.1,0,0.2,0,0.3,0
	c0.1-0.1,0.1-0.2,0.1-0.3c0,0,0-0.1,0-0.1c0-0.1-0.1-0.1-0.2-0.1c0,0,0,0-0.1,0c0,0,0,0,0,0c0,0,0,0,0,0c0,0,0,0,0,0
	c-0.1,0-0.1-0.1-0.1-0.1c0,0,0,0,0,0c0,0,0-0.1,0.1-0.1c0.1,0,0.2-0.1,0.3-0.2c0,0,0-0.1,0-0.1c0-0.1,0-0.1-0.1-0.2
	C23.5,26,23.3,26.2,23.2,26.2z"/>
<path class="st0" d="M30.2,23.7c-0.2-0.1-0.4-0.1-0.4,0c-0.1,0.1-0.2,0.1-0.3,0.1c-0.1,0-0.2-0.1-0.2-0.2c0-0.1-0.1-0.2-0.3-0.2
	c-0.2,0-0.2,0.1-0.3,0.1c0,0-0.1,0.1-0.1,0.1c-0.1,0-0.2,0-0.3,0c-0.1,0-0.1-0.1-0.2-0.1c-0.2,0-0.3,0.1-0.3,0.3c0,0,0,0,0,0
	c0,0.1,0.1,0.2,0.1,0.3c0.1,0.1,0.1,0.2,0.1,0.3c0,0,0,0,0,0c0,0,0,0,0,0c0,0,0,0,0,0c0,0,0,0,0,0c0.1,0,1.2-0.3,1.2-0.4
	c0.1,0,0.2,0,0.3,0c0,0,0.1,0.1,0.1,0.1c0,0,0,0.1-1.3,0.4c-0.2,0.1-0.3,0.2-0.4,0.2c-0.1,0.1-0.2,0.2-0.2,0.2l0,0c0,0,0.1,0,0.2,0
	c0.1,0,0.3,0,0.4,0.1c0,0,0.2,0.1,0.2,0.1c0.2,0.1,0.3,0.2,0.4,0.1c0.2-0.1,0.2-0.2,0.2-0.3c0-0.1,0-0.1,0.1-0.1
	c0.1-0.1,0.2-0.1,0.4,0.1c0.1,0,0.2,0.1,0.3,0.1c0.1,0,0.1-0.1,0.2-0.1c0-0.1,0-0.1,0-0.2c0-0.1,0-0.1-0.1-0.2c0,0,0,0,0-0.1
	c0,0,0-0.1,0-0.1c0,0,0-0.1,0-0.1c0,0,0.1-0.1,0.2-0.1c0.1,0,0.3-0.1,0.3-0.3C30.5,23.8,30.4,23.7,30.2,23.7z"/>
<path class="st0" d="M31.4,22c-0.1-0.1-0.3-0.1-0.4-0.1l0,0c-0.2,0-0.2-0.1-0.3-0.2c0,0,0-0.1-0.1-0.1c-0.1-0.1-0.2-0.1-0.3,0
	c0,0,0,0.1,0,0.1c-0.1,0.1-0.1,0.2-0.3,0.2c-0.1,0-0.3,0-0.4,0.1c-0.1,0.2-0.2,0.3-0.4,0.2c-0.2-0.1-0.4,0-0.5,0c0,0,0,0-0.1,0.1
	c0,0.1-0.1,0.2-0.3,0.4c0,0,0,0,0,0c0.1,0,0.2,0,0.4,0c0.5-0.1,1.2-0.3,1.3-0.3l0,0c0.1,0,0.2-0.1,0.3,0c0,0,0.1,0.1,0,0.2
	c0,0.2-1.5,0.5-2,0.5c-0.2,0-0.2,0.1-0.3,0.1c0,0,0,0,0,0c0,0.1,0.2,0.2,0.3,0.2c0.1,0,0.1,0,0.2-0.1c0.1,0,0.2-0.1,0.3-0.1
	c0.1,0,0.4,0,0.5,0.2c0,0.1,0.1,0.1,0.2,0.1c0.2-0.1,0.4-0.1,0.4,0c0.1,0.1,0.2,0.1,0.3,0.1c0,0,0,0,0,0l0.1,0
	c0.1-0.1,0.1-0.1,0-0.2l0,0c0-0.1,0-0.1,0.1-0.2c0.1,0,0.2,0,0.2,0.1c0,0,0.1,0.1,0.1,0.1c0.1,0,0.1,0,0.2,0c0,0,0.1-0.1,0.1-0.2
	c0-0.1,0-0.1-0.1-0.2c0,0-0.1-0.1-0.1-0.1c0-0.1,0.1-0.1,0.1-0.2c0,0,0.1,0,0.1-0.1C31.5,22.3,31.5,22.1,31.4,22z"/>
<path class="st0" d="M25.9,24.1L25.9,24.1c0,0,0.1,0.1,0.1,0.1c0,0.1-0.1,0.1-0.1,0.1c0,0-0.1,0-0.1,0.1l0,0.1
	c0,0.1,0.1,0.3,0.2,0.3c0,0.1,0.1,0.1,0.2,0.1c0.1,0,0.2,0.1,0.2,0.2c0,0.1-0.1,0.1-0.1,0.2c0,0-0.1,0-0.1,0.1
	c0,0.1,0.1,0.1,0.2,0.2c0,0,0.2,0.1,0.2,0.1c0,0,0.1,0.1,0.1,0.1c0,0,0.1,0,0.1-0.1c0-0.1,0.1-0.5,0.1-0.8c0-0.3-0.1-0.5-0.1-0.7
	l0-0.1c0,0,0-0.1,0-0.1c0-0.1-0.1-0.2,0-0.3c0,0,0.1,0,0.1,0c0.1,0.1,0.1,0.2,0.2,0.6c0,0.2,0.1,0.4,0.1,0.7c0,0.2,0,0.3,0,0.5
	c0,0,0,0,0,0c0,0,0.1-0.1,0.1-0.1s0.1-0.1,0.1-0.1c0,0,0.2-0.2,0.2-0.2c0,0,0.1-0.2,0.1-0.2c0,0,0,0,0,0c0.1-0.1,0.2-0.2,0.3-0.4
	l0-0.1c0-0.1-0.1-0.2-0.1-0.3c-0.1,0-0.2-0.1-0.2-0.2l0,0c0-0.1,0-0.1,0.1-0.1c0,0,0.1-0.1,0.1-0.1l0-0.1c0-0.1-0.2-0.1-0.4-0.2
	c-0.2,0-0.3-0.3-0.4-0.4l0-0.1c-0.1-0.1-0.2-0.2-0.4-0.1c-0.2,0-0.2,0.2-0.2,0.4l0,0.1l0,0.1c0,0.2-0.1,0.2-0.2,0.3
	c-0.1,0-0.2,0-0.2,0.3C25.8,24,25.9,24.1,25.9,24.1z"/>
<path class="st0" d="M27.3,12.9C27.3,12.9,27.3,12.9,27.3,12.9c0.2,0,0.3,0,0.3,0.1c0,0.1,0,0.1,0,0.2c0,0.1,0,0.1,0,0.1
	c0,0,0,0.1,0.1,0.1c0.1,0.1,0.1,0,0.3,0c0.2,0,0.3,0,0.3,0.1c0-0.1-0.1-0.2-0.1-0.3c0,0-0.1-0.3-0.1-0.3l-0.1-0.5
	c0,0-0.1-0.3-0.1-0.3l0,0c0-0.1-0.1-0.2,0-0.2c0,0,0.1-0.1,0.1-0.1c0,0,0.1,0,0.1,0c0.1,0.1,0.1,0.2,0.2,0.4c0,0,0,0,0,0l0.2,0.6
	l0.1,0.3l0,0c0,0,0,0.1,0.1,0.1c0,0,0.2,0,0.2-0.1c0.1-0.1,0.1-0.1,0.1-0.1c0,0,0-0.2,0-0.2c0-0.1,0.1-0.1,0.1-0.1
	c0.1-0.1,0.1-0.2,0.1-0.2c0-0.1-0.1-0.1-0.2,0c0,0-0.1,0-0.1,0c0-0.1,0.1-0.2,0.2-0.2c0.2-0.1,0.2-0.3,0.1-0.4c0,0-0.1-0.1-0.1-0.1
	c-0.1,0-0.1,0-0.2,0l-0.1,0c-0.1,0-0.1,0.1-0.2,0c0,0,0,0,0-0.1c0,0,0-0.1,0-0.1c0,0,0.1-0.1,0.1-0.1c0,0,0-0.1,0-0.1
	c0-0.1,0-0.1-0.1-0.2c-0.1-0.1-0.2,0-0.3,0c0,0-0.1,0-0.1,0c0,0-0.1-0.1-0.1-0.2c0-0.1,0-0.2-0.1-0.3c-0.1-0.1-0.3-0.2-0.5-0.1
	c-0.2,0.1-0.3,0.2-0.3,0.4l0,0c0,0.1,0.1,0.1,0.1,0.1c0,0,0.1,0.1,0.1,0.1c0,0.1-0.1,0.2-0.2,0.2l0,0c-0.1,0-0.2,0-0.2,0.1
	c0,0.1,0,0.2,0.3,0.3c0.1,0,0.2,0.1,0.2,0.2c0,0.1-0.1,0.1-0.2,0.1l0,0c-0.1,0-0.2,0-0.3,0c-0.1,0.1-0.1,0.3,0,0.5
	C26.9,12.9,27.1,12.9,27.3,12.9z"/>
<path class="st0" d="M28.2,19c0,0.3,0.1,0.4,0.3,0.4c0.2,0,0.3,0,0.4,0.1c0,0,0,0,0-0.1c0-0.2,0.1-0.3,0.2-0.4c0,0,0.1-0.1,0.1-0.2
	c0,0,0-0.1,0-0.1c-0.1-0.1-0.1-0.1-0.2,0c-0.1,0-0.1,0.1-0.2,0c-0.1,0-0.1-0.1-0.1-0.1c0-0.1,0-0.1,0.1-0.1l0.1-0.1
	c0.1-0.1,0-0.3,0-0.4c-0.1-0.1-0.2-0.1-0.3-0.1c-0.1,0-0.2,0-0.3-0.1c0,0,0-0.1,0-0.1c0-0.1-0.1-0.3-0.2-0.4c-0.1-0.1-0.3-0.1-0.5,0
	c-0.1,0.1-0.2,0.1-0.2,0.3c0,0.1,0,0.2,0,0.2c0,0.1,0,0.1,0,0.2c0,0.1-0.1,0.1-0.2,0.1c0,0-0.1,0-0.1,0c-0.1,0-0.1,0.1-0.1,0.2
	c0,0.1,0,0.2,0.1,0.3c0.1,0.1,0.1,0.1,0.2,0.1l0,0c0,0,0.1,0,0.1,0c0,0,0,0,0,0.1c0,0,0,0.1,0,0.1c0,0-0.1,0-0.2,0c0,0-0.1,0-0.1,0
	c0,0-0.1,0.1-0.2,0.2c0,0,0,0.1,0,0.1c0,0,0,0.1,0,0.1c0.1,0.1,0.1,0.1,0.2,0.1c0.1,0,0.1,0,0.2,0c0,0,0.1,0,0.1,0.1
	c0,0.1,0,0.1-0.1,0.1c0,0-0.1,0.1-0.1,0.1c0,0.1,0,0.1,0,0.1c0,0,0.1,0.1,0.1,0.1c0.2,0,0.3,0.1,0.3,0.2c0.1,0.1,0.1,0.1,0.2,0.1
	c0.2,0,0.2,0,0.2,0c0,0,0,0,0,0C28,20.3,28,20.2,28,20c0-0.2,0-0.3,0.1-0.4c0,0,0-0.2-0.1-0.2l0-0.1c0-0.1-0.1-0.2-0.1-0.4l0,0
	c0-0.2,0-0.4,0-0.5l0.1,0c0,0,0.1,0,0.1,0c0.1,0.1,0.1,0.2,0.1,0.4V19z"/>
<path class="st0" d="M26.5,21.6L26.5,21.6C26.5,21.6,26.5,21.6,26.5,21.6c0,0,0.1,0,0.1,0c0.1,0,0.1,0,0.2,0.1c0,0,0,0.1,0,0.1
	c0,0.1-0.1,0.1-0.2,0.1c-0.1,0-0.1,0-0.2,0.1c0,0-0.1,0.1,0,0.2c0,0.1,0.1,0.1,0.1,0.2c0,0,0.2,0,0.2,0c0.2,0,0.3,0,0.3,0.3
	c0,0.2,0.1,0.3,0.3,0.3c0.4,0.1,0.4,0,0.4,0c0,0,0-0.1-0.1-0.2c-0.1-0.2-0.5-1.4-0.6-1.4l0-0.1c0-0.1-0.1-0.1,0-0.2
	c0,0,0.1-0.1,0.1-0.1c0.1,0,0.3,0.3,0.4,0.9l0.1,0.4c0.1,0.2,0.1,0.2,0.1,0.2c0.1-0.1,0.2-0.4,0.2-0.6c0-0.1,0-0.2,0-0.3
	c0,0-0.1-0.2-0.1-0.2c0-0.1,0-0.2,0-0.2c0-0.1,0-0.1,0-0.3c0-0.2,0-0.4-0.2-0.4c-0.1,0-0.1,0-0.2,0.1c0,0-0.1,0.1-0.1,0.1
	c-0.2,0.1-0.2-0.1-0.2-0.1c0,0,0-0.1,0-0.1c0-0.1,0-0.2-0.1-0.3c-0.1-0.1-0.3-0.1-0.4,0c-0.1,0.1-0.2,0.1-0.2,0.4
	c0,0.1,0,0.2,0.1,0.3c0,0,0,0.1,0,0.1c0,0,0,0.1,0,0.1c0,0-0.1,0-0.2,0.1c-0.1,0-0.1,0-0.2,0.1c0,0,0,0.1,0,0.1c0,0,0,0.1,0,0.1
	C26.5,21.6,26.5,21.6,26.5,21.6z"/>
<path class="st0" d="M28.9,15.4c-0.1-0.1,0-0.2,0-0.3l0-0.1c0-0.1,0.1-0.2,0.1-0.3c0-0.1-0.1-0.2-0.1-0.2c0,0-0.1,0-0.2,0.1l0,0
	c-0.1,0.1-0.1,0.1-0.3,0.1c0,0-0.1-0.1-0.1-0.1c0-0.1,0-0.1,0-0.2l0-0.2c0,0,0,0,0,0c0-0.1-0.1-0.1-0.2-0.2c-0.1,0-0.1,0-0.2,0.1
	l0,0c-0.1,0.1-0.2,0.1-0.2,0.1c0,0-0.1-0.1-0.1-0.1c0,0,0-0.1-0.1-0.3c-0.1-0.1-0.3-0.1-0.4,0c-0.1,0-0.2,0.1-0.2,0.3l0,0
	c0,0.1,0.1,0.1,0.1,0.1c0.1,0,0.1,0.1,0.1,0.2l0,0.1c0,0,0,0,0,0c0,0-0.1,0-0.2,0c0,0-0.1,0-0.1,0c0,0-0.1,0.1-0.1,0.1c0,0,0,0,0,0
	c0,0.1,0,0.1,0.1,0.2c0.1,0.1,0.1,0.1,0.2,0.1c0.1,0,0.2,0,0.2,0.1c0,0.1-0.1,0.1-0.2,0.1c0,0-0.1,0-0.1,0c-0.1,0-0.1,0.1-0.1,0.2
	c0,0,0,0.1,0,0.1c0,0.1,0.1,0.1,0.1,0.1l0,0c0,0,0,0,0,0v0c0,0,0,0.1,0,0.1c0,0,0.2,0.1,0.3,0.1l0.1,0c0,0,0.1-0.1,0.2,0
	c0,0,0.1,0.1,0.1,0.1c0,0,0,0,0,0c0,0.1,0,0.1-0.1,0.2l0,0c0,0,0,0,0,0.1c0,0,0,0,0,0.1c0,0.1,0.1,0.1,0.1,0.2c0,0,0.1,0,0.1,0
	c0.1,0,0.2-0.1,0.3,0c0.2,0.2,0.3,0.3,0.4,0.3c0,0,0,0,0,0c0-0.1-0.1-0.2-0.1-0.3c0,0-0.1-0.2-0.1-0.2c0,0-0.2-0.4-0.2-0.4
	c0-0.1-0.2-0.5-0.3-0.6c-0.1-0.1-0.1-0.2-0.1-0.3c0,0,0-0.1,0-0.1c0,0,0,0,0.1,0c0.1,0,0.1,0.1,0.2,0.2l0.1,0.1
	c0.1,0.1,0.1,0.3,0.2,0.5c0.2,0.3,0.2,0.4,0.2,0.4c0.1,0.1,0.1,0.2,0.1,0.2c0,0,0,0,0,0c0,0,0.1-0.1,0.1-0.1c0-0.1,0.1-0.1,0.2-0.2
	c0.1-0.1,0.2-0.2,0.2-0.4c0-0.1,0-0.2-0.1-0.2c0,0-0.1,0-0.1,0C29,15.4,28.9,15.4,28.9,15.4z"/>
<path class="st0" d="M30.6,19.9c0.2-0.1,0.3-0.4,0.2-0.7c-0.1-0.3-0.4-0.3-0.6-0.2c-0.1,0-0.2,0.1-0.2,0.1c0,0.1-0.1,0.1-0.2,0.1
	c-0.1,0-0.1,0-0.2-0.1c0,0-0.1-0.1-0.1,0c-0.2,0-0.3,0.2-0.3,0.4c0,0.1-0.1,0.3-0.2,0.3c-0.1,0-0.2,0-0.3-0.1
	c-0.1-0.1-0.2,0-0.3,0.1c0,0-0.1,0.1-0.1,0.2c0,0,0,0.1,0,0.1l0,0.1c0,0,0,0.1,0,0.2c0,0,0,0.1,0,0.1c0,0,0,0,0,0.1
	c0,0.1,0,0.1,0.1,0.2c0.1,0.1,0.1,0.5,0.1,0.5c0,0,0,0,0,0c0,0,0,0,0,0c0,0,0,0,0.1-0.1l0.2-0.2c0.2-0.2,0.5-0.6,0.6-0.7
	c0.1-0.1,0.1-0.2,0.2-0.3c0.1-0.2,0.2-0.3,0.3-0.4c0,0,0.1,0,0.1,0c0.2,0.2-0.2,0.5-0.3,0.6c0,0-0.9,0.9-0.9,0.9
	c-0.1,0.1-0.2,0.3-0.3,0.4c0,0,0,0,0,0c0,0,0,0,0.1,0l0.2,0c0.1,0,0.3,0,0.4,0c0.1,0,0.2-0.1,0.3-0.2l0-0.1c0,0,0-0.1,0.1-0.1
	c0,0,0.1,0,0.2,0c0.1,0,0.2,0.1,0.3,0c0.1-0.1,0.1-0.2,0.1-0.2c0,0,0-0.1-0.1-0.1c-0.2-0.1-0.2-0.2-0.2-0.2c0,0,0-0.1,0-0.1
	c0,0,0.1,0,0.2,0l0,0c0.1,0,0.1,0,0.2,0c0.1,0,0.2-0.2,0.2-0.4c0-0.1,0-0.1-0.1-0.1c0,0-0.1-0.1-0.1-0.2
	C30.4,20,30.5,19.9,30.6,19.9z"/>
<path class="st0" d="M28.9,16.6l0,0.2c0,0,0,0.1,0,0.1c0,0.1,0,0.2-0.1,0.2c-0.1,0.1-0.2,0.1-0.2,0c0,0-0.1,0-0.1,0
	c0,0-0.1,0-0.1,0.1c0,0-0.1,0.1-0.1,0.2c0,0,0,0.1,0,0.1c0,0.1,0.1,0.1,0.3,0.2c0.1,0,0.2,0.1,0.3,0.1c0.1,0.1,0.1,0.2,0.1,0.2
	c0,0,0,0.1,0,0.1c0,0,0.1-0.1,0.1-0.1c0,0,0-0.1,0-0.1c0.1-0.2,0.2-0.3,0.3-0.5c0.1-0.2,0.2-0.4,0.4-0.5c0.1-0.1,0.2-0.1,0.2-0.1
	c0,0,0.1,0,0.1,0.2c0,0.1-0.1,0.2-0.2,0.4l-0.2,0.3c-0.1,0.1-0.2,0.3-0.3,0.4c-0.1,0.1-0.1,0.2-0.2,0.3c0,0,0,0,0,0
	c0.1,0,0.2,0.1,0.2,0.3c0,0.1,0,0.1,0.1,0.1c0,0,0.1,0,0.1-0.1c0.1-0.1,0.1-0.1,0.4-0.1c0.2,0,0.4,0,0.4-0.1c0.1-0.1,0-0.2,0-0.2
	c0,0,0,0,0,0c0,0,0-0.1,0-0.1c0-0.1,0.1-0.1,0.2-0.1c0,0,0,0,0,0c0.1,0,0.2,0,0.2,0c0.1-0.1,0.1-0.1,0.1-0.3c0-0.1-0.1-0.1-0.3-0.1
	c-0.1,0-0.1,0-0.1-0.1c0-0.1,0-0.1,0-0.2c0,0,0.1-0.1,0.1,0c0.1,0,0.3,0,0.4-0.1c0.1-0.1,0.1-0.2,0.1-0.3c-0.1-0.2-0.2-0.2-0.3-0.2
	c-0.2,0-0.2-0.1-0.2-0.1c0-0.1,0-0.1,0.1-0.2c0.1,0,0.1-0.1,0.1-0.2c0-0.1,0-0.2-0.2-0.3c-0.1-0.1-0.3-0.1-0.4,0
	c0,0-0.1,0.1-0.1,0.1c0,0,0,0.1-0.1,0.1c0,0-0.1,0-0.1,0c0,0-0.2-0.1-0.3,0c-0.1,0-0.1,0.2-0.1,0.3l0,0.1c0,0.1,0,0.1,0,0.2
	c0,0,0,0-0.1,0c-0.1,0-0.1-0.1-0.1-0.1c0,0,0-0.1,0-0.1l0,0c0-0.1-0.1-0.1-0.2-0.1C29,16.3,28.9,16.4,28.9,16.6z"/>
<path class="st0" d="M23.7,29.2L23.7,29.2c-0.1,0-0.1-0.1-0.1-0.1c0,0,0,0,0,0c0,0,0-0.1,0-0.1c0,0,0-0.1,0-0.1c0,0,0-0.1,0-0.1
	c0-0.1-0.1-0.2-0.2-0.2c-0.1,0-0.2,0-0.2,0c-0.1,0-0.1,0.1-0.2,0c-0.1,0-0.1-0.1-0.1-0.2c0-0.1,0-0.1-0.1-0.2
	c-0.2-0.2-0.3-0.1-0.5,0c-0.2,0.1-0.4,0.2-0.7,0c-0.2-0.1-0.4,0-0.5,0.1c0,0,0,0,0,0c-0.1,0.1-0.3,0.1-0.5,0.1c0,0,0,0-0.1,0
	c0.1,0,0.1,0,0.2,0l0.2,0l0.9,0.1l0.2,0c0.4,0,0.7,0.1,0.9,0.2c0.1,0.1,0.1,0.1,0.1,0.2l0,0.1c0,0.1-0.2,0.1-0.4,0
	c-0.2-0.1-0.9-0.2-1.2-0.3c0,0-0.2,0-0.2,0c-0.2,0-0.8-0.1-1-0.1c0,0.1,0.2,0.1,0.4,0.2c0.3,0.1,0.5,0.3,0.6,0.5l0.1,0.1
	c0.2,0.2,0.3,0.3,0.4,0.2l0,0c0,0,0.1,0,0.1,0c0.1,0,0.1,0.1,0.1,0.2c0,0.1,0,0.2,0.1,0.2c0.1,0,0.1,0,0.2,0c0.1,0,0.1-0.1,0.1-0.2
	l0,0c0,0,0-0.1,0.1-0.1c0,0,0.1,0,0.1,0c0,0,0,0.1,0,0.1c0,0,0,0,0,0.1l0,0.1c0,0.1,0,0.1,0.1,0.2c0.1,0.1,0.3,0,0.3,0
	c0.1-0.1,0.1-0.1,0.1-0.2c0,0,0,0,0,0c0-0.1,0-0.2,0-0.2c0,0,0.1,0,0.1,0c0.1,0,0.3,0,0.4-0.1c0-0.1,0-0.1,0-0.2
	C23.9,29.4,23.8,29.3,23.7,29.2z"/>
<path class="st0" d="M31.5,18.1c-0.1-0.1-0.4,0-0.5,0.1c0,0,0,0,0,0c0,0-0.1,0-0.1,0c-0.1,0.1-0.2,0.4-0.1,0.6
	c0.1,0.1,0.2,0.1,0.2,0.1c0.1,0,0.2,0,0.3-0.1c0.1-0.1,0-0.1,0-0.1c0,0,0,0,0,0C31.5,18.4,31.6,18.2,31.5,18.1z"/>
<path class="st0" d="M31.5,19.7c0.2,0,0.5-0.1,0.5-0.2c0-0.2-0.2-0.3-0.4-0.3c0,0,0,0,0,0c0,0,0-0.1-0.1-0.1c-0.2,0-0.4,0.1-0.5,0.3
	c0,0.2,0.2,0.4,0.4,0.4C31.4,19.7,31.4,19.7,31.5,19.7C31.5,19.7,31.5,19.7,31.5,19.7z"/>
<path class="st0" d="M31.3,20.5c-0.1-0.1-0.4,0-0.5,0.2c0,0,0,0,0,0c0,0-0.1,0-0.1,0.1c-0.1,0.1-0.1,0.2-0.1,0.3
	c0,0.1,0,0.2,0.1,0.2c0.1,0.1,0.2,0.1,0.3,0.1c0.1,0,0.2-0.1,0.3-0.2c0-0.1,0-0.1,0-0.1c0,0,0,0,0,0C31.4,20.9,31.4,20.6,31.3,20.5z
	"/>
<path class="st0" d="M30.4,25.5c-0.1-0.1-0.3-0.2-0.5-0.1c0,0,0,0,0,0c0,0,0,0-0.1,0c-0.2,0.1-0.3,0.3-0.2,0.5
	c0,0.1,0.1,0.1,0.2,0.2c0.1,0,0.2,0,0.3,0c0.1,0,0.1-0.1,0.1-0.1c0,0,0,0,0,0C30.3,25.8,30.5,25.6,30.4,25.5z"/>
<path class="st0" d="M24.9,29.3C24.9,29.3,24.9,29.3,24.9,29.3c0-0.1,0-0.1,0-0.2c-0.1-0.2-0.3-0.3-0.5-0.2c-0.1,0-0.2,0.1-0.2,0.2
	c0,0.1,0,0.2,0,0.3c0,0.1,0.1,0.1,0.1,0.1c0,0,0,0,0,0c0.1,0.2,0.3,0.3,0.4,0.3C25,29.8,25,29.5,24.9,29.3z"/>
<path class="st0" d="M24.5,28.5c0.1-0.1-0.1-0.4-0.3-0.5c0,0,0,0,0,0c0,0,0-0.1-0.1-0.1c-0.2-0.1-0.4-0.1-0.5,0.1c0,0.1,0,0.2,0,0.3
	c0,0.1,0.1,0.2,0.2,0.3c0.1,0,0.1,0,0.1,0c0,0,0,0,0,0C24.2,28.7,24.5,28.7,24.5,28.5z"/>
<path class="st0" d="M30.6,14.1c0-0.1-0.1-0.1-0.2-0.1l-0.1,0c-0.1,0-0.1-0.1-0.1-0.1c0-0.1,0.1-0.1,0.1-0.1c0.1,0,0.2-0.1,0.2-0.2
	c0-0.1-0.1-0.2-0.2-0.2l-0.1,0h0c0,0-0.1,0-0.2-0.1c0,0-0.1-0.1-0.1-0.2c0,0,0-0.3-0.1-0.3c-0.1,0-0.2,0-0.2,0c0,0-0.1,0.1-0.1,0.1
	c0,0,0,0.1,0,0.1c0,0,0,0-0.1,0c-0.1,0-0.1-0.1-0.2-0.1c-0.1,0-0.1,0-0.2,0.1c0,0,0,0.1,0,0.1c0,0,0,0,0,0.1c0,0,0,0.1,0,0.1
	c0,0.1-0.1,0.2-0.2,0.2l-0.1,0c-0.1,0-0.1,0-0.1,0.1c0,0.1-0.1,0.1-0.1,0.2c0,0,0,0.1,0,0.1c0,0.1,0.1,0.1,0.2,0.2l0,0c0,0,0,0,0,0
	c0,0,0,0,0,0c0,0,0,0,0,0c0,0,0,0,0,0c0,0,0,0.1,0,0.1c0,0,0,0.1,0,0.1c0,0,0.1,0,0.1,0l0,0c0.1,0,0.3,0.1,0.3,0.2
	c0,0.1,0.1,0.1,0.1,0.2c0,0,0,0.1,0,0.1c0,0.1-0.1,0.2-0.1,0.3c0,0,0,0.1,0,0.1c0,0,0,0,0,0c0.2,0,0.2,0.2,0.2,0.3
	c0,0.1,0,0.2,0.1,0.2c0-0.1,0-0.4,0-0.4l0-0.3c0-0.2,0-0.4,0-0.5c0,0-0.1-0.6-0.1-0.6l0-0.1c0,0,0,0,0-0.1c0-0.1,0-0.1,0.1-0.2
	c0,0,0.1,0,0.1,0c0.1,0.1,0.1,0.3,0.1,0.7c0,0,0.1,1.2,0.1,1.3c0.1,0,0.1,0,0.2-0.1c0.1,0,0.1-0.1,0.1-0.1c0,0,0,0,0,0
	c0-0.1-0.1-0.1-0.1-0.1c0,0,0,0,0,0c0,0,0,0,0,0c0,0,0,0,0,0c0,0,0.1,0,0.2,0c0.1-0.1,0.1-0.1,0.1-0.2c0-0.1,0-0.1-0.1-0.2
	c-0.1-0.1-0.2,0-0.2-0.2c0-0.1,0-0.1,0.1-0.2c0,0,0.1,0,0.1,0c0.1,0,0.2,0,0.2-0.1C30.7,14.3,30.7,14.2,30.6,14.1z"/>
<g>
	<path class="st0" d="M6.5,12.2c0-0.1,0-0.3-0.2-0.3c-0.1,0-0.2,0-0.3,0.1c0,0.1,0,0.2,0.1,0.3c0.1,0.1,0.2,0.1,0.2,0
		C6.5,12.4,6.5,12.3,6.5,12.2z"/>
	<path class="st0" d="M6.7,16c0-0.1,0-0.3-0.2-0.3c-0.1,0-0.2,0-0.3,0.1c0,0.1,0,0.2,0.1,0.3c0.1,0.1,0.2,0.1,0.2,0
		C6.6,16.1,6.7,16.1,6.7,16z"/>
	<path class="st0" d="M9.7,23.2c0-0.1,0-0.2-0.1-0.2c0,0-0.1-0.1-0.2-0.1c-0.1,0-0.2,0.1-0.2,0.2c0,0.1,0.1,0.2,0.1,0.2c0,0,0,0,0,0
		c0,0,0.2,0,0.2,0C9.7,23.3,9.7,23.2,9.7,23.2z"/>
	<path class="st0" d="M8.8,25.2c0,0.1-0.1,0.1-0.1,0.2c0,0,0,0,0,0c0,0,0,0.1,0.1,0.1c0.1,0.1,0.2,0,0.3,0c0.1,0,0.2-0.1,0.2-0.2
		c0-0.1,0-0.2-0.1-0.2C9.1,25.1,8.9,25.1,8.8,25.2z"/>
	<path class="st0" d="M6.5,14.9c-0.1,0-0.2,0.1-0.2,0.2c0,0,0,0.3,0.2,0.3c0.2,0,0.3-0.2,0.3-0.3C6.7,15,6.6,14.9,6.5,14.9z"/>
	<path class="st0" d="M6.8,11.6c0-0.1-0.1-0.2-0.2-0.2c-0.1,0-0.2,0.1-0.2,0.2c0,0,0,0,0,0c0,0.1,0.1,0.1,0.1,0.1c0,0,0,0,0,0
		c0,0,0,0,0,0c0,0,0,0,0.1,0C6.8,11.8,6.8,11.6,6.8,11.6z"/>
	<path class="st0" d="M7.4,19.3c0,0.2-0.1,0.6,0,0.6c0,0,0.1,0,0.1-0.1c0.1-0.1,0.2-0.2,0.3-0.3l0.4-0.3c0.2-0.1,0.4-0.3,0.5-0.4
		c0.1-0.1,0.1-0.2,0.1-0.3c0,0,0,0,0,0c0,0-0.1,0-0.1,0l-0.2,0c-0.2,0-0.4,0.1-0.6,0.1C7.6,18.9,7.5,19,7.4,19.3z"/>
	<path class="st0" d="M8.2,24.5c0.1,0,0.1-0.1,0.1-0.3c0-0.3,0-0.4,0.1-0.9c0-0.1,0.1-0.2,0.1-0.4c0.1-0.2,0.1-0.3,0.2-0.6
		c0-0.3-0.1-0.6-0.1-0.6c0,0-0.1,0.2-0.1,0.3l-0.1,0.3l-0.2,0.3C8,23,7.9,23.2,7.9,23.5c0,0.3,0,0.5,0.2,0.8
		C8.1,24.5,8.2,24.5,8.2,24.5z"/>
	<path class="st0" d="M7.7,14.2c-0.1,0.1-0.2,0.4-0.2,0.6c0,0.2,0,0.3,0,0.5c0,0.1,0,0.2,0,0.2c0,0,0.1,0,0.1,0
		c0.2-0.1,0.4-0.4,0.5-0.7c0.2-0.4,0.2-0.8,0.2-1c0,0,0,0,0,0C8.2,13.9,7.8,14,7.7,14.2z"/>
	<path class="st0" d="M5.6,23.3c-0.1,0-0.2,0.1-0.2,0.2c0,0,0,0,0,0.1c0,0.1,0.1,0.2,0.3,0.2c0.1,0,0.1,0,0.2-0.1c0-0.1,0-0.2,0-0.2
		C5.9,23.3,5.7,23.3,5.6,23.3z"/>
	<path class="st0" d="M6.2,23.5c0.1,0.1,0.1,0.2,0.3,0.4c0.3,0.3,1.1,0.8,1.3,0.8c0,0,0,0,0,0c0,0-0.1-0.2-0.2-0.3
		c-0.2-0.2-0.4-0.4-0.5-0.6c-0.2-0.3-0.4-0.6-0.7-0.8c-0.4-0.2-0.7-0.2-0.9-0.1c0,0,0,0,0,0c0,0,0.1,0.1,0.2,0.1l0.3,0.2
		C6.1,23.3,6.1,23.4,6.2,23.5z"/>
	<path class="st0" d="M8.1,12.9c-0.4,0.2-0.6,0.3-0.6,0.4l0,0.3l0,0.2c0,0,0,0,0,0.1c0,0,0,0,0,0c0,0,0,0,0.2-0.1
		c0.3-0.1,0.7-0.4,0.9-0.6c0.2-0.2,0.3-0.4,0.3-0.5c-0.1,0-0.4,0.1-0.5,0.2C8.3,12.8,8.1,12.9,8.1,12.9z"/>
	<path class="st0" d="M4.9,23.3c0,0.1,0,0.2,0,0.2c0,0,0.1,0.1,0.2,0.1c0.1,0,0.2-0.1,0.2-0.1c0-0.1,0-0.2-0.1-0.2
		c0,0-0.1-0.1-0.2-0.1C5,23.2,5,23.2,4.9,23.3z"/>
	<path class="st0" d="M5.7,15.8l0.2,0.4C5.9,16.3,6,16.5,6,16.5c0-0.1,0.1-0.2,0.1-0.4c0-0.2,0-0.5,0-0.7l0-0.1
		c0-0.3-0.1-0.6-0.2-0.8l0-0.1c-0.1-0.4-0.3-0.7-0.3-0.7c0,0.1-0.1,0.4-0.1,0.8c0,0,0,0.1,0,0.2C5.4,15,5.5,15.4,5.7,15.8z"/>
	<path class="st0" d="M7.4,12.6c0,0.1,0,0.1,0,0.2l0,0c0,0,0,0.1,0,0.1c0,0,0,0,0,0c0.1,0,0.6-0.4,0.8-0.7c0.2-0.3,0.3-0.6,0.4-0.9
		c0-0.1,0-0.1,0-0.2c0,0,0,0,0,0c0,0,0,0-0.1,0c-0.1,0-0.6,0.3-0.9,0.8C7.4,12.3,7.4,12.4,7.4,12.6z"/>
	<path class="st0" d="M7.2,21.9L7.2,21.9c-0.1,0.2-0.2,0.2-0.2,0.3c0,0,0,0,0,0c0,0,0,0,0,0c0,0,0,0,0.1,0c0.1,0,0.2-0.1,0.4-0.2
		c0.2-0.1,0.3-0.2,0.5-0.2c0.1,0,0.3-0.1,0.4-0.2C8.8,21.3,9,20.9,9,20.7c0,0,0,0,0,0c-0.1,0-0.4,0-0.7,0.3
		C7.8,21.2,7.4,21.6,7.2,21.9z"/>
	<path class="st0" d="M8.9,22.9c-0.1,0-0.2,0.4-0.3,0.8c-0.1,0.5-0.1,0.7-0.1,0.9c0.1,0.2,0.1,0.3,0.2,0.3c0.1,0,0.1,0,0.2-0.1
		c0.1-0.1,0.1-0.3,0.1-0.5L9,23.6C9,23.3,9,22.9,8.9,22.9z"/>
	<path class="st0" d="M8.1,22.3C8.2,22.1,8.1,22,8.1,22c-0.2,0-0.5,0.1-0.6,0.3c-0.2,0.2-0.3,0.3-0.3,0.5c0,0.1,0,0.2,0,0.3
		c0,0.1,0,0.3,0.1,0.4c0.1,0.3,0.3,0.5,0.4,0.5c0,0,0-0.1,0-0.2c0-0.1,0-0.2,0-0.4c0-0.3,0.1-0.5,0.2-0.7l0.1-0.2
		C8,22.5,8,22.4,8.1,22.3z"/>
	<path class="st0" d="M6.3,14.5c0.1,0.1,0.2,0.1,0.2,0.1c0,0,0,0,0,0c0-0.1,0-0.1,0-0.2L6.4,14c0-0.3,0-0.7,0-0.7l0,0
		c0-0.3-0.1-0.5-0.3-0.7c-0.1-0.1-0.2-0.2-0.2-0.3c0,0,0,0.2,0,0.2c0,0.1,0,0.2,0,0.4c0,0.2,0,0.5,0.1,0.7C6,14,6.1,14.4,6.3,14.5z"
		/>
	<path class="st0" d="M4.9,18.6c0.1,0.1,0.3,0.1,0.3,0.2c0,0,0,0-0.1-0.2c-0.2-0.3-0.3-0.5-0.4-0.8c0,0-0.2-0.4-0.4-0.7
		c-0.2-0.2-0.5-0.4-0.5-0.4c0,0,0,0,0,0.1c0,0.2,0.1,0.7,0.4,1.1C4.4,18.2,4.6,18.4,4.9,18.6z"/>
	<path class="st0" d="M13.5,29.3c-0.2,0-0.3,0.1-0.5,0.2c-0.1,0-0.3,0.2-0.6,0.5c-0.1,0.1-0.1,0.2-0.1,0.2c0.1,0,0.2,0,0.6-0.1
		c0.5-0.1,1-0.6,1.1-0.7C13.9,29.4,13.7,29.3,13.5,29.3z"/>
	<path class="st0" d="M5.3,22l0.6,0.3l0.5,0.2c0.2,0.1,0.4,0.2,0.4,0.2c0,0,0.1,0,0.1,0c0,0,0,0,0,0c0,0,0-0.1-0.1-0.3
		c-0.2-0.3-0.9-1-1.2-1.1c-0.4-0.2-1-0.4-1.1-0.3c0,0,0,0,0,0c0,0,0,0,0,0l0,0l0,0.1C4.5,21.4,4.6,21.7,5.3,22z"/>
	<path class="st0" d="M7.3,21.4c0.2-0.3,0.6-0.6,0.9-0.8c0.3-0.3,0.5-0.6,0.5-0.9c0,0,0-0.1,0-0.1c0,0-0.1,0-0.2,0
		c-0.6,0.1-0.8,0.4-1,0.7c-0.1,0.2-0.2,0.4-0.3,0.8l-0.1,0.3l-0.1,0.2c0,0.1,0,0.1,0,0.1C7,21.6,7.1,21.6,7.3,21.4z"/>
	<path class="st0" d="M7.7,11.4c0-0.1,0-0.1,0-0.2c0-0.2,0-0.4-0.1-0.5c0,0,0,0,0,0c0,0-0.1,0-0.1,0.1c-0.2,0.2-0.4,0.6-0.4,0.8
		l0,0.1c0,0.2,0,0.3,0.1,0.5C7.3,11.9,7.6,11.5,7.7,11.4z"/>
	<path class="st0" d="M6.6,21.8C6.6,21.8,6.6,21.8,6.6,21.8C6.6,21.9,6.6,21.9,6.6,21.8c0.1,0,0.1-0.1,0.2-0.3l0,0
		c0.1-0.4,0.3-0.9,0.3-1.5c0-0.3,0-0.6-0.1-0.7c-0.1,0-0.1,0-0.2,0.1c-0.2,0.2-0.4,0.5-0.4,0.7c0,0.3,0,0.5,0.1,0.7l0,0.2
		c0,0.2,0,0.3,0,0.6C6.5,21.7,6.5,21.8,6.6,21.8z"/>
	<path class="st0" d="M5.2,19.1c-0.3-0.2-0.8-0.5-1-0.4c0,0.1,0.2,0.5,0.6,1C5.2,20.1,6,20.7,6,20.7c0.1-0.1,0-0.5-0.2-0.9
		C5.8,19.5,5.5,19.3,5.2,19.1z"/>
	<path class="st0" d="M6.3,19.6l0.2-0.3c0.2-0.2,0.4-0.4,0.7-0.5c0.2-0.1,0.5-0.3,0.7-0.5c0.2-0.2,0.2-0.4,0.2-0.4c0,0,0,0,0,0
		c0,0-0.2,0-0.6,0.1c-0.2,0.1-0.6,0.2-0.8,0.5c-0.2,0.1-0.3,0.3-0.4,0.5c-0.1,0.2-0.1,0.4-0.1,0.5C6.2,19.6,6.2,19.6,6.3,19.6
		C6.3,19.7,6.3,19.6,6.3,19.6z"/>
	<path class="st0" d="M6.3,18.3l0.1-0.1c0.2-0.2,0.5-0.3,0.9-0.5l0.3-0.1c0.2-0.1,0.4-0.2,0.6-0.3c0.2-0.2,0.2-0.3,0.2-0.3
		c0,0,0,0,0,0c-0.1,0-1,0.1-1.4,0.3c-0.3,0.1-0.5,0.3-0.7,0.5c-0.1,0.2-0.2,0.4-0.2,0.6c0,0,0,0.1,0,0.1v0l0,0
		C6.2,18.3,6.2,18.4,6.3,18.3C6.2,18.4,6.2,18.4,6.3,18.3C6.2,18.4,6.3,18.3,6.3,18.3z"/>
	<path class="st0" d="M6.2,17.2C6.2,17.3,6.2,17.3,6.2,17.2C6.2,17.3,6.2,17.3,6.2,17.2c0,0.1,0.1,0,0.1,0C6.4,17.1,6.5,17,6.6,17
		c0.2-0.2,0.4-0.2,0.6-0.3c0.1,0,0.3-0.1,0.5-0.2c0.4-0.2,0.6-0.4,0.6-0.6c0.1-0.2,0.1-0.4,0.1-0.5c0-0.1,0-0.1,0-0.1l0,0
		c0,0-0.2,0.1-0.3,0.2l-0.2,0.2c-0.3,0.2-0.5,0.3-0.7,0.4c-0.3,0.1-0.5,0.3-0.7,0.5C6.3,16.8,6.2,17,6.2,17.2
		C6.2,17.2,6.2,17.2,6.2,17.2z"/>
	<path class="st0" d="M7,14.9C7,14.9,7,14.9,7,14.9c0.1,0,0.1,0,0.2-0.1c0.1-0.4,0.1-0.7,0.1-1c0-0.1,0-0.1,0-0.1l0-0.1
		c0-0.4,0-0.6-0.1-0.8C7,12.3,7,12.1,6.9,12.1c-0.1,0.1-0.3,0.8-0.3,1.3l0,0c0,0.4,0.1,0.8,0.1,1C6.8,14.6,6.8,14.8,7,14.9z"/>
	<path class="st0" d="M12.3,27.6L12.3,27.6C12.3,27.6,12.3,27.6,12.3,27.6C12.3,27.6,12.3,27.6,12.3,27.6c0.1,0,0.1-0.2,0.1-0.3
		c0-0.2,0.1-0.4,0.1-0.9c0,0,0-0.1,0-0.1c0-0.6-0.2-0.8-0.3-0.8c0,0,0,0-0.1,0c-0.1,0.1-0.2,0.2-0.2,0.5c0,0.2,0,0.4,0.1,0.7
		C12.1,27.4,12.2,27.6,12.3,27.6z"/>
	<path class="st0" d="M13.1,27.8C13.1,27.8,13.1,27.9,13.1,27.8c0,0.2,0.1,0.5,0.6,0.6c0.2,0.1,0.5,0.1,0.7-0.1c0,0-0.1,0-0.1-0.1
		c-0.2-0.1-0.5-0.2-0.6-0.5c-0.2-0.3-0.2-0.5-0.2-0.7c0,0,0-0.1,0-0.1c-0.1,0.1-0.1,0.2-0.2,0.4C13.1,27.5,13.1,27.7,13.1,27.8z"/>
	<path class="st0" d="M12,27.8C12,27.8,12,27.8,12,27.8C12,27.8,12,27.8,12,27.8C12,27.8,12,27.8,12,27.8c0,0,0-0.1,0-0.1
		c0-0.1-0.1-0.4-0.2-0.9l0-0.1c0-0.3-0.2-1.1-0.2-1.1c-0.1,0.1-0.2,0.2-0.3,0.6c0,0.1-0.1,0.4,0.1,0.7C11.3,27.3,11.8,27.8,12,27.8z
		"/>
	<path class="st0" d="M9.4,25.1c0,0,0.1,0,0.1,0c0.3-0.2,0.4-0.3,0.6-0.5c0.1-0.1,0.3-0.4,0.3-0.6c0-0.1,0-0.1,0-0.1
		c0,0-0.1,0-0.4,0.3c-0.1,0.1-0.2,0.2-0.4,0.2c-0.2,0.1-0.4,0.2-0.4,0.4C9.3,24.8,9.4,25,9.4,25.1z"/>
	<path class="st0" d="M13.8,27.6c0.1,0.2,0.2,0.4,0.4,0.5c0.3,0.1,0.8,0.1,0.8,0.1c0-0.1-0.4-0.3-0.7-0.5l-0.3-0.2L14,27.4
		c-0.1-0.1-0.2-0.1-0.2-0.1C13.7,27.2,13.7,27.4,13.8,27.6L13.8,27.6z"/>
	<path class="st0" d="M12.5,29c0.4,0.1,0.6,0.1,0.8,0.1c0.4,0,0.7-0.3,0.7-0.3c0,0-0.1-0.1-1-0.2c-0.3,0-0.6,0-0.9,0.1
		c-0.2,0-0.4,0.1-0.6,0.3c0,0,0,0,0,0c0,0,0,0,0.1,0C11.8,28.9,12.2,28.9,12.5,29z"/>
	<path class="st0" d="M9.2,26.9c0,0,0.1,0,0.2-0.1c0.2-0.1,0.5-0.4,0.7-0.8c0.2-0.5,0.3-0.8,0.3-1.1c0-0.1,0-0.2,0-0.2
		c0,0,0,0-0.1,0c-0.4,0.3-0.7,0.6-0.8,0.8c-0.1,0.2-0.2,0.5-0.2,0.7l0,0.2C9.1,26.8,9.1,26.8,9.2,26.9z"/>
	<path class="st0" d="M12.8,29.3c0-0.1-0.5-0.1-0.8-0.1c-0.2,0-0.5,0-0.7,0.2l0,0c-0.2,0.2-0.4,0.4-0.6,0.5c0,0-0.1,0-0.1,0
		c0,0,0.3,0.1,0.8,0C12,30,12.8,29.4,12.8,29.3z"/>
	<path class="st0" d="M5.1,16.3c0.2,0.3,0.7,0.7,0.8,0.7c0,0,0-0.1,0-0.1c0,0,0-0.1,0-0.1c-0.1-0.2-0.2-0.5-0.3-0.8l-0.3-0.6L5,15
		c-0.2-0.3-0.2-0.4-0.3-0.5c0,0.1-0.1,0.3-0.1,0.5c0,0.1,0,0.3,0,0.4C4.7,15.8,4.8,16,5.1,16.3z"/>
	<path class="st0" d="M9.6,28.3l0.4-0.1c0.2-0.1,0.4-0.2,0.4-0.2c0,0,0,0,0,0c-0.1-0.1-0.6-0.1-1.1,0C9,28,8.8,28.1,8.6,28.3
		c-0.2,0.1-0.3,0.3-0.3,0.4c0,0-0.1,0.1-0.1,0.1c0,0,0.2,0,0.4-0.1c0.2-0.1,0.4-0.2,0.7-0.3L9.6,28.3z"/>
	<path class="st0" d="M11.2,28.7C11.2,28.7,11.2,28.7,11.2,28.7L11.2,28.7c-0.1-0.1-0.3,0.1-0.5,0.2l-0.4,0.2l-0.3,0.2
		c-0.2,0.1-0.3,0.2-0.5,0.3c-0.1,0.2-0.2,0.2-0.2,0.2c0,0,0,0,0.1,0c0.1,0,0.3,0,0.6,0c0.2,0,0.5-0.1,0.8-0.4
		C11.1,29.2,11.2,28.9,11.2,28.7z"/>
	<path class="st0" d="M11,28.3C11,28.3,11,28.3,11,28.3C11,28.3,11,28.3,11,28.3c0-0.1,0-0.1-0.2-0.1c-0.3,0-0.7,0.2-1.1,0.4
		c-0.5,0.3-0.8,0.5-0.8,0.5l0,0c0.1,0,0.3,0.1,0.5,0.1c0.2,0,0.5,0,0.9-0.3C10.5,28.7,10.8,28.6,11,28.3z"/>
	<path class="st0" d="M15.1,28.4c-0.2,0-0.4,0-0.6,0.1c-0.1,0.1-0.4,0.4-0.5,0.5c0.2,0.1,0.6,0,0.8-0.2l0,0l0.4-0.3
		c0.1-0.1,0.1-0.1,0.1-0.1C15.4,28.5,15.3,28.4,15.1,28.4z"/>
	<path class="st0" d="M12.8,28.3c0.1,0,0.1,0,0.1-0.1c0,0,0-0.1,0-0.1c0-0.1,0-0.1,0-0.2c0-0.1-0.1-0.1-0.2-0.1
		c-0.1,0-0.2,0-0.3,0.1c-0.1,0.1-0.1,0.3,0,0.3C12.5,28.3,12.6,28.4,12.8,28.3z"/>
	<path class="st0" d="M9,25.9C9,25.9,9,25.9,9,25.9c-0.2-0.1-0.5-0.2-0.9-0.3c-0.5-0.1-1.1-0.1-1.3,0c-0.3,0.1-0.6,0.2-0.7,0.3
		C6,25.9,6,26,6,26c0,0,0.3,0.1,0.5,0.1c0.3,0,0.5,0,0.8,0C7.5,26,7.7,26,8,26C8.7,26,9,26,9,25.9C9,25.9,9,25.9,9,25.9z"/>
	<path class="st0" d="M5.3,24.5c1.5,0.4,1.8,0.3,1.9,0.3c0,0,0,0,0,0c0,0,0,0-0.1-0.1l-0.6-0.3l-0.2-0.1C6.2,24.2,6,24,5.7,24
		l-0.1,0c-0.2,0-0.5-0.1-0.8-0.2c-0.3-0.1-0.4-0.1-0.4-0.1c0,0,0,0,0,0.1l0,0C4.6,24,4.7,24.3,5.3,24.5z"/>
	<path class="st0" d="M5.3,20.9c0.2,0,0.3,0,0.4,0c0-0.1-0.1-0.1-0.1-0.1l-0.2-0.2c0,0-1-1-1-1C4.2,19.5,3.7,19,3.6,19
		c0,0,0,0,0,0.1c0,0,0,0,0,0c0,0.2,0,0.5,0.3,0.9c0.2,0.3,0.4,0.5,0.7,0.6C4.8,20.8,5.1,20.9,5.3,20.9z"/>
	<path class="st0" d="M5.9,19.3c0-0.1,0-0.1,0-0.2c0-0.3,0-0.7-0.1-1c-0.1-0.4-0.2-0.6-0.4-0.9c-0.3-0.3-0.7-0.7-0.8-0.8
		c0,0,0,0,0,0c0,0.2,0.2,0.9,0.5,1.5C5.3,18.5,5.8,19.3,5.9,19.3z"/>
	<path class="st0" d="M6.8,25.3C7,25.3,7,25.2,7,25.2c0,0,0-0.1-0.3-0.1L6.4,25l-0.7-0.2c-0.4-0.1-0.7-0.1-0.9-0.1
		c-0.2,0-0.3,0.1-0.3,0.1c0,0,0.1,0.2,0.2,0.3c0.2,0.2,0.5,0.2,0.9,0.3C6.1,25.4,6.5,25.3,6.8,25.3L6.8,25.3z"/>
	<path class="st0" d="M11,27.9c0.1,0,0.2-0.1,0.2-0.1c0-0.1,0-0.1,0-0.2c-0.1-0.2-0.2-0.2-0.3-0.2c-0.1,0-0.2,0.1-0.3,0.2
		c0,0.1,0,0.2,0,0.2C10.8,27.8,10.9,27.9,11,27.9z"/>
	<path class="st0" d="M11.4,28.5c0.1,0.1,0.3,0.1,0.3,0l0,0c0.1,0,0.1-0.1,0.1-0.2c0-0.1-0.1-0.2-0.2-0.3l0,0c-0.1,0-0.2,0-0.3,0.1
		C11.2,28.3,11.4,28.5,11.4,28.5z"/>
	<path class="st0" d="M10,26.7c0.2,0,0.6-0.1,0.8-0.4c0.2-0.3,0.3-0.7,0.3-1c0,0,0,0,0,0c0-0.5-0.3-1-0.3-1c0,0,0,0.1-0.1,0.3l0,0.3
		l-0.1,0.6C10.4,26.1,10.2,26.4,10,26.7C10,26.7,10,26.7,10,26.7z"/>
	<path class="st0" d="M10.8,27.1c0,0,0-0.1-0.3-0.1c-0.2,0-0.5,0-0.8,0.1l0,0c-0.2,0.1-0.3,0.1-0.5,0.2c-0.1,0.1-0.4,0.3-0.4,0.4
		c0,0,0,0,0,0c0,0,0,0,0,0c0.1,0,0.2,0,0.4-0.1c0.1,0,0.2-0.1,0.4-0.1l0.3,0c0.2,0,0.3,0,0.4-0.1l0.2-0.1
		C10.5,27.3,10.6,27.2,10.8,27.1C10.8,27.1,10.8,27.1,10.8,27.1z"/>
	<path class="st0" d="M12.6,27.5c0.1,0,0.2-0.1,0.3-0.3c0.1-0.2,0.3-0.4,0.3-0.6c0.1-0.3,0.1-0.5,0-0.7c0,0,0,0-0.1,0
		c-0.1,0.1-0.4,0.3-0.4,0.6c0,0.2-0.1,0.4-0.1,0.6l0,0.1C12.6,27.4,12.6,27.5,12.6,27.5L12.6,27.5z"/>
	<path class="st0" d="M7,15.3c-0.1,0-0.1,0-0.2,0c0,0-0.1,0.1-0.1,0.2c0,0.1,0,0.1,0,0.2c0.1,0.1,0.2,0.1,0.3,0c0.1,0,0.1-0.2,0-0.3
		C7.1,15.4,7.1,15.3,7,15.3z"/>
	<path class="st0" d="M8.5,27.1L8.5,27.1c0,0-0.1,0-0.2,0c-0.1,0-0.1,0.1-0.1,0.1c0,0.1,0,0.1,0,0.2c0,0.1,0.1,0.1,0.1,0.1
		c0.1,0,0.2,0,0.3,0c0,0,0.1-0.1,0.1-0.2C8.7,27.2,8.6,27.2,8.5,27.1z"/>
	<path class="st0" d="M7.8,27.3c0-0.2-0.3-0.2-0.4-0.2c-0.1,0-0.2,0.1-0.2,0.3c0,0.1,0.1,0.3,0.3,0.3c0.1,0,0.2,0,0.2-0.1
		C7.8,27.5,7.8,27.4,7.8,27.3C7.8,27.3,7.8,27.3,7.8,27.3z"/>
	<path class="st0" d="M8.1,27.7c-0.1-0.1-0.2,0-0.3,0c-0.1,0-0.1,0.1-0.2,0.2c0,0.1,0.1,0.2,0.2,0.3c0.1,0,0.2,0,0.2,0
		c0.1,0,0.1-0.1,0.1-0.2C8.3,27.8,8.2,27.8,8.1,27.7z"/>
	<path class="st0" d="M8.5,25.2c0,0,0-0.1,0-0.1c0-0.1,0-0.2-0.1-0.3c-0.1-0.1-0.3-0.1-0.4,0.1C7.9,25,7.9,25.1,8,25.2
		c0,0.1,0.1,0.2,0.2,0.2C8.4,25.4,8.4,25.3,8.5,25.2z"/>
	<path class="st0" d="M7.3,25.1c0,0.1,0.1,0.2,0.2,0.2c0.1,0,0.2,0,0.2-0.1c0-0.1,0-0.2,0-0.2c0-0.1-0.1-0.1-0.2-0.1
		c-0.1,0-0.1,0-0.2,0.1C7.3,25,7.3,25.1,7.3,25.1z"/>
	<path class="st0" d="M5.5,22.4L5.5,22.4l-0.5-0.3L4.9,22c-0.3-0.1-0.5-0.2-0.8-0.2c-0.2,0-0.3,0-0.3,0c0,0,0,0.4,0.7,0.6
		c0.6,0.2,1.1,0,1.2,0C5.7,22.5,5.6,22.5,5.5,22.4z"/>
	<path class="st0" d="M8.9,26.4c0,0-0.2,0-0.3,0l-0.4,0c-0.9-0.1-1.7,0.2-1.9,0.3c0,0,0,0,0,0c0,0,0.1,0.1,0.6,0.1
		c0.3,0,0.8,0.1,1,0.1c0.2,0,0.9,0,1-0.3C8.9,26.5,8.9,26.4,8.9,26.4z"/>
	<path class="st0" d="M6.3,21.2c0,0.2-0.1,0.3-0.3,0.3c-0.1,0-0.3-0.2-0.3-0.3c0-0.2,0.1-0.3,0.3-0.3C6.2,20.9,6.3,21,6.3,21.2z"/>
	<path class="st0" d="M9.8,23.8c0,0.2-0.2,0.3-0.3,0.3c-0.1,0-0.3-0.1-0.3-0.3c0-0.2,0.1-0.3,0.3-0.3C9.7,23.5,9.8,23.6,9.8,23.8z"
		/>
	<path class="st0" d="M10.3,23.4c0,0.1-0.1,0.2-0.2,0.2c-0.1,0-0.2-0.1-0.2-0.2c0-0.1,0.1-0.2,0.2-0.2
		C10.2,23.2,10.3,23.3,10.3,23.4z"/>
</g>
<path class="st0" d="M18.7,29c-0.1-0.1-0.2-0.2-0.3-0.2V29h0c0.1,0.2,0.4,0.5,0.9,0.9c0.3,0.2,2.2,1.5,2.3,1.6l0-0.5
	C21.6,31,18.8,29,18.7,29z"/>
<path class="st0" d="M19.6,29.1c-0.3-0.2-0.6-0.4-0.8-0.5c0,0-0.1,0-0.1,0c-0.1,0-0.2,0-0.3,0v0.1c0,0.1,0.1,0.1,0.3,0.2
	c0.1,0.1,2.9,2,3,2.1l0-0.4C21.6,30.6,20.4,29.7,19.6,29.1z"/>
<path class="st0" d="M16.7,28.9c0,0-0.2,0.1-0.4,0.3c-0.3,0.2-2.4,1.7-2.5,1.8l0,0.5c0.1,0,2-1.4,2.3-1.6c0.6-0.5,0.9-0.7,1-0.9
	v-0.3C17,28.7,16.9,28.8,16.7,28.9z"/>
<path class="st0" d="M16.3,29.3c0.2-0.2,0.4-0.3,0.4-0.3c0.2-0.1,0.3-0.2,0.3-0.3v-0.3c-0.1,0-0.2,0-0.3,0.1c0,0-0.1,0-0.1,0.1
	c-0.1,0.1-2.7,1.9-2.8,2l0,0.4C13.9,31,15.5,29.8,16.3,29.3z"/>
<path class="st0" d="M20,27.1h-0.7c-0.5,0.4-0.7,0.6-0.8,0.7h0v0.3c0,0,0.1-0.1,0.3-0.2C18.7,27.9,19.3,27.5,20,27.1z"/>
<path class="st0" d="M19.5,28.6c-0.1-0.1-0.2-0.1-0.3-0.2c0.1,0,0.2-0.1,0.2-0.1c0.3-0.2,1.4-0.9,1.9-1.2h-0.7
	c-0.8,0.5-1.7,1.1-1.8,1.1c0,0,0,0,0,0c0,0,0,0,0,0c-0.1,0.1-0.2,0.1-0.3,0.1v-0.3v-0.3h0h-0.3V29h0.3h0v-0.3v-0.1
	c0.1,0,0.2,0,0.3,0c0,0,0,0,0.1,0c0.1,0.1,0.4,0.3,0.8,0.5c0,0,0,0,0,0c0.3,0.2,2.1,1.4,2.2,1.5l0-0.5C21.6,30,19.8,28.8,19.5,28.6z
	"/>
<path class="st0" d="M16.2,27.1h-0.7c0.4,0.3,0.8,0.5,0.9,0.6c0,0,0,0,0,0c0.2,0.1,0.4,0.2,0.4,0.2C16.9,28,17,28,17,28.1
	c0,0,0,0,0,0v-0.3C16.9,27.7,16.7,27.5,16.2,27.1z"/>
<path class="st0" d="M16.4,27.7c-0.2-0.2-0.6-0.4-0.9-0.6h-0.6c0.7,0.4,1.5,0.9,1.8,1.1c0.2,0,0.3,0,0.4,0v-0.1c0,0,0,0,0,0
	c0,0-0.1-0.1-0.2-0.2C16.7,27.9,16.6,27.8,16.4,27.7z"/>
<rect x="17.3" y="27.8" class="st0" width="0.8" height="1.2"/>
<path class="st0" d="M18.7,27.9c-0.1,0.1-0.2,0.1-0.3,0.2v0.3c0.1,0,0.2,0,0.3-0.1c0,0,0,0,0,0c0,0,0,0,0,0c0.1,0,1-0.7,1.8-1.1H20
	C19.3,27.5,18.7,27.9,18.7,27.9z"/>
<path class="st0" d="M17,27.8L17,27.8v0.3c0,0,0,0,0,0c0,0,0,0,0,0v0.1c0,0-0.2,0-0.4,0c-0.3-0.2-1.1-0.7-1.8-1.1h-0.7
	c0.5,0.3,1.6,1,1.8,1.1c0.1,0.1,0.2,0.1,0.3,0.2c-0.1,0-0.2,0.1-0.3,0.2c-0.3,0.2-2.1,1.4-2.3,1.5l0,0.5c0.1-0.1,2.7-1.9,2.8-2
	c0,0,0.1-0.1,0.1-0.1c0.1-0.1,0.3-0.1,0.3-0.1v0.3V29v0h0.3v-1.2H17z"/>
<g>
	<path class="st0" d="M11.5,3.6c0,0.1,0.2,0.6,0.2,0.6L12.3,4c0,0-0.1-0.4-0.2-0.6c0-0.1,0-0.3-0.1-0.2C12,3.4,12,3.5,11.9,3.7
		c0,0.1-0.1,0.1-0.1,0C11.7,3.7,11.7,3.6,11.5,3.6C11.5,3.5,11.5,3.6,11.5,3.6"/>
	<path class="st0" d="M12.5,3.1c0,0.1,0.3,0.8,0.3,0.8s0.3-0.1,0.6-0.1c0.3,0,0.5-0.1,0.5-0.1s-0.2-0.8-0.2-0.9c0-0.1-0.1,0-0.1,0.1
		c-0.1,0.1-0.2,0.3-0.3,0.4c-0.1,0.1-0.1,0.1-0.2,0C12.9,3.3,12.7,3.2,12.5,3.1C12.5,3,12.5,3.1,12.5,3.1"/>
	<path class="st0" d="M14.2,2.8c0,0.1,0.2,0.9,0.2,0.9s0.2,0,0.7-0.1c0.6-0.1,0.8-0.1,0.8-0.1s-0.1-0.6-0.1-0.9c0-0.2,0-0.3-0.2-0.1
		C15.3,2.7,15.1,3,15,3c-0.1,0-0.3-0.1-0.5-0.2C14.1,2.5,14.2,2.6,14.2,2.8"/>
	<path class="st0" d="M23.9,3.6c0,0.1-0.2,0.6-0.2,0.6L23.1,4c0,0,0.1-0.4,0.2-0.6c0-0.1,0-0.3,0.1-0.2c0.1,0.1,0.1,0.2,0.2,0.4
		c0,0.1,0.1,0.1,0.1,0C23.7,3.7,23.8,3.6,23.9,3.6C23.9,3.5,23.9,3.6,23.9,3.6"/>
	<path class="st0" d="M22.9,3.1c0,0.1-0.3,0.8-0.3,0.8S22.3,3.9,22,3.8c-0.3,0-0.5-0.1-0.5-0.1s0.2-0.8,0.2-0.9c0-0.1,0.1,0,0.1,0.1
		c0.1,0.1,0.2,0.3,0.3,0.4c0.1,0.1,0.1,0.1,0.2,0C22.6,3.3,22.7,3.2,22.9,3.1C22.9,3,22.9,3.1,22.9,3.1"/>
	<path class="st0" d="M21.2,2.8c0,0.1-0.2,0.9-0.2,0.9s-0.2,0-0.7-0.1c-0.6-0.1-0.8-0.1-0.8-0.1s0.1-0.6,0.1-0.9
		c0-0.2,0-0.3,0.2-0.1C20.1,2.7,20.3,3,20.4,3c0.1,0,0.3-0.1,0.5-0.2C21.3,2.5,21.3,2.6,21.2,2.8"/>
	<path class="st0" d="M18.7,2.1L18.7,2.1C18.7,2.1,18.7,2.1,18.7,2.1C18.7,2.1,18.7,2.1,18.7,2.1c-0.2,0.1-0.2,0.2-0.3,0.2
		c-0.1,0-0.1,0.1-0.2,0.1C18,2.6,18,2.7,17.8,2.8c0,0-0.1,0-0.1,0c0,0-0.1,0-0.1,0c-0.2-0.1-0.2-0.2-0.4-0.3
		c-0.1-0.1-0.1-0.1-0.2-0.1c-0.1-0.1-0.2-0.1-0.3-0.2c0,0,0,0,0,0c0,0,0,0,0,0c0,0,0,0,0,0c0,0-0.1,0-0.1,0.1c0,0.1,0,0.2,0,0.2
		c0,0.2,0.1,1.1,0.1,1.1s0,0,0,0v0c0,0,0.5,0,1,0c0.4,0,1,0,1,0v0c0,0,0,0,0,0s0.1-0.9,0.1-1.1C18.8,2.3,18.8,2.2,18.7,2.1
		C18.8,2.1,18.8,2.1,18.7,2.1"/>
	<path class="st0" d="M20.9,4c-1.5-0.2-2.8-0.2-3.1-0.2v0c0,0,0,0,0,0c0,0,0,0,0,0v0c-0.3,0-1.6,0-3.1,0.2c-1.3,0.2-2.2,0.4-2.7,0.5
		L12,5c0.8-0.2,1.5-0.3,2.7-0.5c1.3-0.2,2.7-0.2,3-0.2c0.3,0,1.6,0,3,0.2c1.3,0.1,1.9,0.3,2.7,0.5l0.2-0.5C23,4.3,22.1,4.1,20.9,4"
		/>
	<path class="st0" d="M22.8,6.9c-1.3-0.2-2.8-0.4-5-0.4l0,0h-0.1h-0.1l0,0c-2.2,0-3.8,0.2-5,0.4l0.2,0.5c1.5-0.3,3-0.4,4.9-0.4
		c1.9,0,3.4,0.1,4.9,0.4L22.8,6.9z"/>
	<path class="st0" d="M20.1,4.8C19,4.7,18,4.6,17.7,4.7c-0.3,0-1.3,0-2.4,0.1c-1.5,0.1-2.4,0.3-3.2,0.5l0.4,1.3
		c1.4-0.3,2.9-0.4,4.5-0.5V5.9V5.4c0-0.3,0.3-0.5,0.7-0.5c0.4,0,0.7,0.2,0.7,0.5v0.5v0.3c1.5,0,3.1,0.2,4.5,0.5l0.4-1.3
		C22.5,5.1,21.7,4.9,20.1,4.8 M12.8,6.2c0,0-0.1-0.2-0.1-0.3c0-0.2-0.1-0.4,0.3-0.5c0.4-0.1,0.4,0.2,0.5,0.3c0,0.1,0.1,0.3,0.1,0.3
		L12.8,6.2z M14,6c0,0-0.1-0.2-0.1-0.4c0-0.2,0.1-0.4,0.4-0.4c0.3,0,0.5,0.1,0.6,0.3c0,0.2,0.1,0.4,0.1,0.4L14,6z M15.4,5.9
		c0,0,0-0.3,0-0.4c0-0.1,0.1-0.4,0.4-0.4c0.3,0,0.5,0.1,0.6,0.3c0,0.2,0.1,0.5,0.1,0.5L15.4,5.9z M20,5.9l-1-0.1c0,0,0-0.3,0.1-0.5
		c0-0.2,0.2-0.3,0.6-0.3c0.3,0,0.4,0.3,0.4,0.4C20,5.6,20,5.9,20,5.9 M21.5,5.6c0,0.2-0.1,0.4-0.1,0.4l-0.9-0.1c0,0,0.1-0.2,0.1-0.4
		c0.1-0.2,0.3-0.3,0.6-0.3C21.4,5.2,21.5,5.4,21.5,5.6 M22.7,5.9c0,0.1-0.1,0.3-0.1,0.3l-0.8-0.1c0,0,0.1-0.2,0.1-0.3
		c0-0.1,0.1-0.4,0.5-0.3C22.8,5.5,22.8,5.7,22.7,5.9"/>
</g>
<g>
	<rect x="13.3" y="16.3" class="st1" width="1.8" height="7.6"/>
	<path class="st1" d="M16.8,16.3V24c0.4,0.2,0.8,0.5,0.9,1c0.1-0.4,0.5-0.8,0.9-1v-7.7H16.8z"/>
	<rect x="11.6" y="8.7" class="st1" width="1.8" height="7.6"/>
	<rect x="15.1" y="8.7" class="st1" width="1.8" height="7.6"/>
	<rect x="22.1" y="8.7" class="st1" width="1.8" height="7.6"/>
	<rect x="20.4" y="16.3" class="st1" width="1.8" height="7.6"/>
	<rect x="18.6" y="8.7" class="st1" width="1.8" height="7.6"/>
</g>
<g>
	<rect x="13.3" y="8.7" class="st0" width="1.8" height="7.6"/>
	<rect x="16.8" y="8.7" class="st0" width="1.8" height="7.6"/>
	<path class="st0" d="M11.6,16.3v6.2c0,0.8,0.6,1.4,1.4,1.4h0.4v-7.6H11.6z"/>
	<path class="st0" d="M15.1,16.3v7.6h1.3c0.2,0,0.3,0,0.5,0.1v-7.7H15.1z"/>
	<path class="st0" d="M22.1,16.3v7.6h0.4c0.8,0,1.4-0.6,1.4-1.4v-6.2H22.1z"/>
	<rect x="20.4" y="8.7" class="st0" width="1.8" height="7.6"/>
	<path class="st0" d="M18.6,16.3V24c0.2-0.1,0.3-0.1,0.5-0.1h1.3v-7.6H18.6z"/>
</g>
<g>
	<path class="st0" d="M23.9,8.4H11.3v14c0,0.9,0.7,1.6,1.6,1.6h3.4c0.1,0,0.3,0,0.4,0.1c0.4,0.1,0.7,0.4,0.8,0.8l0.2,0.7l0.2-0.7
		c0.1-0.4,0.4-0.7,0.8-0.8c0.1,0,0.3-0.1,0.4-0.1h3.4c0.9,0,1.6-0.7,1.6-1.6v-14H23.9z M23.7,8.8c0,0.4,0,13.6,0,13.6
		c0,0.7-0.5,1.2-1.2,1.2h-3.4c-0.2,0-0.4,0-0.5,0.1c-0.3,0.1-0.6,0.4-0.8,0.7c-0.2-0.3-0.5-0.5-0.8-0.7c-0.2-0.1-0.4-0.1-0.6-0.1H13
		c-0.7,0-1.2-0.5-1.2-1.2c0,0,0-13.2,0-13.6C12.1,8.8,23.3,8.8,23.7,8.8z"/>
</g>
</svg>
