<?xml version="1.0" standalone="no"?>
<!DOCTYPE svg PUBLIC "-//W3C//DTD SVG 20010904//EN"
 "http://www.w3.org/TR/2001/REC-SVG-20010904/DTD/svg10.dtd">
<svg version="1.0" xmlns="http://www.w3.org/2000/svg"
 width="225.000000pt" height="225.000000pt" viewBox="0 0 225.000000 225.000000"
 preserveAspectRatio="xMidYMid meet">
<metadata>
Created by potrace 1.14, written by Peter Selinger 2001-2017
</metadata>
<g transform="translate(0.000000,225.000000) scale(0.100000,-0.100000)"
fill="#000000" stroke="none">
<path d="M1005 2200 c-229 -26 -444 -125 -609 -280 -234 -220 -347 -481 -347
-802 1 -307 117 -571 346 -786 199 -186 446 -282 730 -282 305 -1 562 107 772
323 154 159 248 338 294 562 17 85 15 314 -5 402 -85 389 -350 690 -717 813
-134 45 -327 66 -464 50z m389 -55 c178 -46 347 -144 478 -276 200 -203 308
-463 308 -744 0 -481 -323 -896 -797 -1022 -86 -23 -117 -26 -258 -26 -143 0
-171 3 -260 27 -310 84 -555 286 -690 569 -167 347 -127 771 99 1072 67 89
147 177 154 170 3 -2 11 3 18 14 20 28 172 125 249 159 164 71 275 92 460 87
110 -3 161 -9 239 -30z"/>
<path d="M989 2111 c-30 -24 -33 -89 -5 -120 25 -27 85 -28 117 -2 29 24 31
91 4 121 -24 26 -85 27 -116 1z m76 -61 c0 -28 -4 -35 -20 -35 -13 0 -21 8
-23 23 -5 34 5 54 25 50 13 -2 18 -13 18 -38z"/>
<path d="M1166 2113 c-11 -43 -17 -133 -8 -133 6 0 17 -3 26 -6 12 -5 16 0 16
17 0 13 4 30 9 38 6 10 12 4 20 -22 12 -34 27 -47 56 -47 14 0 19 18 29 113 5
45 5 47 -19 47 -21 0 -27 -6 -32 -31 l-6 -32 -19 37 c-20 40 -62 51 -72 19z"/>
<path d="M878 2103 c-13 -3 -15 -10 -7 -41 27 -108 29 -112 54 -112 14 0 25 3
25 8 1 28 -36 152 -44 151 -6 -1 -18 -3 -28 -6z"/>
<path d="M1349 2030 c-13 -38 -20 -72 -16 -76 14 -14 112 -41 121 -34 15 15
-2 38 -33 45 -47 10 -39 29 9 21 35 -5 40 -4 40 13 0 13 -9 20 -30 25 -16 3
-30 11 -30 17 0 7 7 8 18 4 38 -17 59 -17 65 -1 4 9 1 19 -6 21 -56 20 -101
35 -108 35 -4 0 -18 -31 -30 -70z"/>
<path d="M758 2066 c-42 -15 -58 -26 -58 -40 0 -16 5 -17 35 -12 l36 7 -17
-38 c-38 -88 -29 -100 51 -72 70 25 80 32 72 54 -6 14 -10 14 -42 1 -39 -17
-42 -11 -20 41 16 39 19 69 8 76 -5 2 -34 -5 -65 -17z"/>
<path d="M590 1979 c-25 -16 -44 -33 -43 -39 5 -18 74 -120 82 -120 8 0 101
60 101 65 0 2 -3 11 -6 19 -6 14 -10 14 -41 -5 -44 -27 -57 -16 -18 16 24 18
27 26 18 36 -9 9 -18 8 -38 -5 -15 -10 -30 -15 -33 -11 -4 4 0 10 8 15 37 21
53 38 46 48 -11 18 -26 14 -76 -19z"/>
<path d="M1585 1963 c-40 -39 -41 -101 -2 -128 25 -17 83 -20 92 -5 11 18 -16
41 -44 38 -33 -4 -39 21 -11 53 l20 24 23 -27 c34 -41 54 -36 47 12 -5 43 -92
66 -125 33z"/>
<path d="M489 1907 c-9 -7 -33 -27 -54 -45 -34 -31 -36 -35 -22 -49 14 -14 18
-14 33 -2 15 12 21 9 53 -29 37 -42 37 -42 55 -23 17 19 17 21 -15 60 -30 38
-31 42 -16 59 13 14 14 21 5 30 -15 15 -19 15 -39 -1z"/>
<path d="M1713 1838 c-36 -48 -43 -61 -33 -73 20 -24 32 -17 82 42 37 45 44
60 36 73 -18 29 -38 19 -85 -42z"/>
<path d="M1796 1773 c-41 -77 -42 -80 -20 -104 17 -19 17 -19 101 17 17 8 38
14 47 14 20 0 21 24 1 40 -13 11 -22 10 -51 -3 -52 -25 -59 -21 -30 17 31 41
32 48 7 70 -18 17 -20 15 -55 -51z"/>
<path d="M362 1769 c-12 -5 -30 -22 -41 -40 -25 -40 -15 -77 28 -106 27 -18
37 -20 62 -11 59 20 80 90 39 133 -25 26 -57 35 -88 24z m61 -79 c6 -24 -10
-39 -34 -33 -27 8 -44 40 -29 58 15 18 56 1 63 -25z"/>
<path d="M1901 1645 c-67 -42 -64 -40 -56 -64 9 -28 16 -27 83 16 31 21 58 38
60 39 6 4 -18 44 -26 44 -4 0 -31 -16 -61 -35z"/>
<path d="M727 1638 c6 -7 13 -26 17 -41 4 -16 18 -41 31 -55 l25 -27 -21 -7
c-12 -5 -27 -4 -33 0 -6 5 -23 12 -38 16 -16 3 -28 13 -28 21 0 9 -10 15 -26
15 -20 0 -25 -4 -22 -18 4 -14 -6 -22 -53 -37 -49 -15 -59 -22 -59 -41 0 -15
7 -24 21 -26 17 -2 27 -20 49 -85 26 -79 26 -82 7 -87 -10 -2 -16 -9 -12 -15
3 -6 -1 -11 -9 -11 -20 0 -20 -10 -1 -46 13 -25 13 -29 0 -37 -8 -4 -15 -19
-15 -32 0 -13 -6 -25 -12 -27 -7 -3 -11 -18 -10 -36 2 -28 -1 -32 -38 -43 -30
-9 -40 -17 -40 -33 0 -37 12 -66 26 -66 8 0 15 -4 15 -10 3 -23 2 -36 -5 -51
-4 -9 -3 -32 1 -50 7 -27 15 -35 36 -37 15 -2 25 -7 22 -12 -8 -12 17 -50 32
-50 7 0 13 9 13 20 0 31 16 24 27 -12 10 -33 14 -35 45 -23 11 4 18 0 22 -13
10 -30 56 -45 102 -34 22 6 58 13 81 16 l42 6 17 -57 c10 -32 17 -64 17 -70 0
-7 4 -13 9 -13 5 0 7 10 4 23 -3 12 -3 16 0 9 3 -6 11 -9 17 -5 6 4 8 0 4 -10
-5 -15 1 -17 41 -16 26 1 39 3 30 6 -10 2 -18 11 -18 18 0 17 -38 93 -51 101
-5 3 -9 10 -9 16 0 6 11 2 23 -11 39 -36 59 -19 51 43 -3 28 -8 57 -10 64 -4
15 33 51 52 52 7 0 15 8 18 17 4 10 4 14 0 10 -14 -14 -32 27 -27 63 4 31 1
37 -21 49 -14 8 -26 18 -26 23 0 12 -42 68 -52 68 -4 0 -6 -6 -4 -12 1 -7 1
-10 -1 -6 -2 4 -11 4 -19 1 -7 -3 -12 -9 -9 -13 6 -9 -53 -35 -62 -27 -3 4
-14 2 -24 -3 -22 -12 -58 -2 -37 11 9 6 7 9 -9 9 -20 0 -23 6 -25 43 -2 77 -5
92 -17 116 -17 31 -1 47 29 31 11 -6 36 -10 53 -8 26 2 33 -1 35 -18 2 -14 -5
-24 -23 -32 -27 -13 -31 -31 -14 -64 10 -19 9 -20 -10 -15 -15 3 -21 1 -18 -6
2 -7 14 -12 26 -11 11 0 21 -2 21 -6 0 -3 6 -15 14 -25 12 -17 15 -17 48 10
29 23 34 33 33 64 -2 20 2 39 8 43 8 5 7 14 -1 33 -7 14 -12 34 -12 44 0 28
-38 34 -43 7 -3 -17 -5 -15 -6 7 -1 21 4 27 19 27 24 0 25 11 5 51 -9 16 -21
27 -27 23 -11 -7 -28 13 -28 34 0 6 8 12 18 13 11 0 8 4 -10 10 -21 8 -29 20
-39 62 -6 28 -13 63 -14 77 -3 39 -4 40 -24 40 -27 0 -46 28 -43 61 3 27 1 29
-28 29 -25 0 -30 -3 -23 -12z m-73 -243 c-4 -8 1 -17 10 -21 11 -4 15 -13 10
-26 -4 -14 -2 -18 5 -14 7 5 9 1 5 -8 -7 -18 -24 -21 -24 -5 0 7 -10 9 -24 7
-29 -6 -42 16 -23 36 10 11 15 10 29 -7 10 -11 18 -16 18 -11 0 6 -5 15 -11
21 -11 11 -6 43 5 43 3 0 3 -7 0 -15z m166 -135 c0 -5 10 -10 23 -10 20 -1 20
-2 4 -11 -9 -6 -15 -14 -12 -20 4 -5 2 -9 -3 -9 -5 0 -12 8 -16 18 -3 9 -9 23
-12 30 -3 6 -1 12 5 12 6 0 11 -4 11 -10z m-20 -20 c9 -16 8 -18 -5 -14 -8 4
-15 12 -15 20 0 20 7 17 20 -6z m107 -23 c4 -4 -7 -7 -25 -5 -18 1 -32 6 -32
10 0 10 46 5 57 -5z m55 -56 c7 11 9 11 6 1 -5 -17 -23 -17 -24 0 -1 9 1 8 4
-1 3 -12 5 -12 14 0z m-189 -60 c3 -16 9 -41 13 -56 6 -22 4 -26 -7 -20 -11 7
-12 6 -3 -6 6 -8 14 -22 17 -31 4 -13 2 -15 -10 -11 -9 4 -14 2 -10 -3 3 -5
-3 -10 -14 -10 -19 0 -19 1 -3 13 13 9 14 16 6 26 -7 8 -8 17 -4 21 4 4 -2 14
-12 22 -11 7 -16 17 -12 21 4 4 11 1 16 -7 14 -23 20 -7 11 26 -5 16 -10 21
-10 12 -1 -24 -21 -23 -21 0 0 41 35 44 43 3z m-221 -101 c6 0 8 -11 4 -25 -5
-18 -2 -27 10 -32 12 -4 13 -8 3 -14 -10 -6 -10 -11 0 -22 9 -11 9 -17 1 -22
-6 -4 -14 -4 -17 -1 -4 3 0 6 7 6 11 0 11 3 2 12 -7 7 -12 20 -12 30 0 20 -29
25 -47 7 -13 -13 -28 24 -17 42 4 8 3 9 -4 5 -7 -4 -12 -2 -12 3 0 6 7 11 15
11 8 0 15 -4 15 -10 0 -5 5 -10 11 -10 6 0 8 7 5 16 -5 12 -2 15 10 10 8 -3
20 -6 26 -6z m461 -5 c1 -6 14 -21 29 -33 18 -16 28 -33 27 -50 0 -16 -3 -21
-6 -12 -3 8 -18 31 -33 50 -38 50 -45 63 -31 59 7 -3 13 -9 14 -14z m-50 -45
c-2 -8 2 -5 8 7 12 22 12 22 31 -13 10 -19 15 -40 12 -46 -4 -6 -3 -8 3 -5 5
4 23 -7 38 -23 24 -25 26 -31 14 -46 -11 -13 -24 -15 -74 -9 -33 3 -72 7 -87
8 -16 1 -28 7 -28 12 0 6 -3 19 -6 30 -4 17 0 21 25 23 16 1 32 -2 36 -8 3 -5
-3 -10 -15 -10 -12 0 -19 -4 -15 -9 5 -8 45 -7 49 1 12 23 36 80 36 85 0 4 -6
-1 -13 -12 -13 -17 -15 -16 -25 15 -15 42 -15 44 2 28 7 -7 12 -20 9 -28z
m-425 -28 c6 -18 -15 -14 -22 4 -4 10 -1 14 6 12 6 -2 14 -10 16 -16z m412
-132 c13 -8 13 -13 2 -31 -12 -19 -11 -20 7 -14 16 5 20 3 15 -9 -3 -9 -9 -14
-13 -12 -3 2 -7 -7 -7 -20 -1 -13 2 -21 7 -18 5 3 9 -2 9 -10 0 -12 -9 -10
-39 12 -21 15 -37 29 -35 31 3 3 10 -1 16 -7 17 -17 33 -15 18 2 -6 8 -21 16
-33 18 -16 2 -23 11 -25 33 -3 27 0 30 30 32 18 1 40 -2 48 -7z m-110 -20 c-8
-5 -26 -9 -40 -9 l-25 1 25 8 c14 4 32 8 40 9 13 1 13 0 0 -9z m-22 -25 c13
-4 22 -1 23 7 0 7 4 3 9 -9 16 -39 3 -58 -41 -59 -32 -1 -37 1 -28 12 6 8 15
12 19 9 11 -7 40 5 40 17 0 5 -4 7 -10 3 -5 -3 -18 0 -29 7 -17 10 -23 10 -33
-1 -11 -11 -9 -12 12 -6 l25 6 -25 -20 c-14 -11 -28 -21 -32 -21 -5 0 -8 -5
-8 -11 0 -5 5 -7 12 -3 7 4 8 3 4 -4 -5 -9 -13 -9 -28 -1 -21 11 -21 12 3 25
l24 14 -27 -6 c-19 -4 -28 -2 -28 6 0 7 -8 10 -18 8 -15 -4 -42 12 -42 26 0
13 116 14 178 1z m203 -10 c5 4 9 1 9 -5 0 -6 -6 -13 -14 -16 -8 -3 -12 -12
-9 -20 4 -12 8 -12 18 3 12 16 13 15 12 -9 -2 -28 -9 -27 -44 5 -25 22 -22 39
5 30 14 -5 15 -3 5 8 -7 7 -13 18 -13 24 0 5 5 2 11 -8 6 -9 14 -15 20 -12z
m-114 -51 c-3 -3 -12 -4 -19 -1 -8 3 -5 6 6 6 11 1 17 -2 13 -5z m51 -90 c-3
-14 -5 -12 -10 9 -3 19 -2 25 4 19 6 -6 8 -18 6 -28z m38 -12 c1 -7 0 -8 -3
-2 -2 5 -9 8 -14 4 -5 -3 -9 0 -9 6 0 15 23 7 26 -8z"/>
<path d="M615 1350 c-3 -5 -1 -10 4 -10 6 0 11 5 11 10 0 6 -2 10 -4 10 -3 0
-8 -4 -11 -10z"/>
<path d="M530 980 c0 -5 5 -10 11 -10 5 0 7 5 4 10 -3 6 -8 10 -11 10 -2 0 -4
-4 -4 -10z"/>
<path d="M990 905 c-7 -9 -8 -15 -2 -15 5 0 12 7 16 15 3 8 4 15 2 15 -2 0 -9
-7 -16 -15z"/>
<path d="M1047 833 c3 -7 9 -10 14 -7 14 8 11 21 -5 21 -8 0 -12 -6 -9 -14z"/>
<path d="M913 773 c9 -2 23 -2 30 0 6 3 -1 5 -18 5 -16 0 -22 -2 -12 -5z"/>
<path d="M880 750 c0 -6 7 -10 15 -10 8 0 15 2 15 4 0 2 -7 6 -15 10 -8 3 -15
1 -15 -4z"/>
<path d="M703 733 c9 -2 14 -9 11 -15 -4 -7 -2 -8 5 -4 15 10 4 26 -17 25 -15
-1 -15 -2 1 -6z"/>
<path d="M252 1615 c-24 -18 -58 -93 -46 -104 25 -23 115 -63 128 -58 26 10
19 44 -9 51 -34 9 -23 25 17 24 19 -1 36 6 44 17 21 29 17 35 -25 35 -29 0
-40 5 -44 18 -6 25 -41 33 -65 17z m28 -60 c0 -8 -7 -15 -15 -15 -16 0 -20 12
-8 23 11 12 23 8 23 -8z"/>
<path d="M1950 1570 c-35 -16 -66 -33 -68 -38 -3 -10 40 -112 48 -112 3 0 11
4 19 9 12 8 13 14 3 36 -16 34 -9 43 44 67 44 19 46 28 20 65 -1 1 -30 -11
-66 -27z"/>
<path d="M1478 1562 c-10 -2 -18 -11 -19 -20 0 -14 -2 -15 -7 -2 -8 17 -32 25
-32 10 0 -5 -7 -10 -16 -10 -9 0 -13 -6 -10 -12 2 -7 10 -29 16 -48 l12 -35
120 2 121 1 17 44 17 45 -27 10 c-21 8 -29 7 -38 -6 -10 -15 -11 -15 -6 0 7
23 -33 32 -46 11 -8 -15 -9 -15 -10 -1 0 11 -10 16 -29 17 -22 0 -28 -3 -24
-14 3 -8 0 -14 -5 -14 -6 0 -12 6 -14 13 -2 7 -11 11 -20 9z m82 -77 c0 -8 -7
-15 -15 -15 -8 0 -15 7 -15 15 0 8 7 15 15 15 8 0 15 -7 15 -15z"/>
<path d="M184 1445 c-14 -10 -43 -81 -44 -107 0 -3 24 -12 53 -18 28 -7 60
-17 71 -22 13 -7 21 -6 27 3 16 25 9 47 -14 53 -20 5 -23 11 -19 36 7 49 -38
82 -74 55z m36 -60 c0 -8 -7 -15 -15 -15 -16 0 -20 12 -8 23 11 12 23 8 23 -8z"/>
<path d="M2000 1428 c-36 -12 -66 -22 -68 -23 -1 -1 5 -30 14 -64 13 -46 22
-61 36 -61 20 0 22 11 9 58 -8 25 -7 32 4 32 7 0 16 -13 20 -30 7 -34 16 -42
33 -31 8 5 9 16 3 39 -5 18 -6 32 -1 32 5 0 11 -13 15 -30 8 -34 19 -44 38
-33 11 7 10 19 -5 71 -10 34 -22 62 -26 61 -4 -1 -36 -10 -72 -21z"/>
<path d="M1390 1251 c0 -93 3 -176 6 -185 5 -12 20 -16 64 -16 39 0 62 -5 70
-15 12 -14 15 -14 30 0 10 9 36 15 66 15 28 0 55 5 62 12 8 8 12 64 12 185 l0
173 -155 0 -155 0 0 -169z m90 74 c0 -78 -2 -85 -20 -85 -18 0 -20 7 -20 85 0
78 2 85 20 85 18 0 20 -7 20 -85z m80 0 c0 -67 -3 -85 -14 -85 -11 0 -15 20
-18 85 -3 76 -1 85 15 85 15 0 17 -11 17 -85z m85 63 c3 -13 5 -50 3 -83 -2
-48 -7 -60 -20 -63 -16 -3 -18 6 -18 82 0 69 3 86 15 86 8 0 17 -10 20 -22z
m-207 -243 c-1 -58 -6 -85 -14 -85 -18 0 -24 25 -24 101 0 63 2 69 20 69 20 0
21 -5 18 -85z m82 0 c0 -78 -2 -85 -20 -85 -18 0 -20 7 -20 78 0 80 3 92 27
92 10 0 13 -21 13 -85z m80 0 c0 -69 -3 -85 -15 -85 -12 0 -15 16 -15 85 0 69
3 85 15 85 12 0 15 -16 15 -85z m80 6 c0 -61 -3 -80 -15 -85 -13 -4 -15 8 -15
79 0 69 3 85 15 85 12 0 15 -15 15 -79z"/>
<path d="M978 1373 c12 -2 32 -2 45 0 12 2 2 4 -23 4 -25 0 -35 -2 -22 -4z"/>
<path d="M1274 1347 c-12 -12 -24 -35 -28 -50 -4 -15 -10 -26 -14 -23 -4 2 -6
-12 -4 -32 4 -33 3 -35 -12 -23 -19 16 -21 8 -5 -21 8 -15 8 -22 0 -28 -13 -7
-4 -40 10 -40 6 0 5 -8 -1 -19 -14 -28 -13 -31 13 -31 19 -1 20 -2 5 -11 -23
-13 -14 -34 34 -82 21 -21 38 -42 38 -47 0 -5 9 -12 20 -15 11 -4 18 -10 15
-15 -3 -5 13 -8 35 -7 42 3 64 -5 66 -23 1 -5 2 -13 3 -16 2 -9 91 68 91 79 0
11 -30 36 -43 37 -5 0 -5 -6 -1 -12 6 -10 4 -10 -7 0 -7 6 -20 12 -29 12 -8 0
-22 9 -29 19 -8 11 -20 17 -26 14 -7 -2 -19 9 -26 26 -13 29 -17 32 -36 30
-13 -1 -21 36 -11 49 7 8 7 12 1 12 -6 0 -8 11 -5 25 2 15 0 25 -7 25 -12 0
-11 36 2 57 4 6 3 23 -3 37 -5 14 -6 26 -1 26 4 0 8 13 8 30 0 16 -4 27 -9 24
-4 -3 -8 0 -8 5 0 17 -13 12 -36 -12z m13 -269 c-3 -8 -6 -5 -6 6 -1 11 2 17
5 13 3 -3 4 -12 1 -19z"/>
<path d="M1762 1301 c0 -53 3 -71 15 -75 8 -3 20 -3 25 1 7 3 8 1 4 -5 -4 -7
-14 -12 -21 -12 -16 0 -31 -43 -21 -59 4 -5 2 -12 -4 -16 -5 -3 -10 -17 -10
-30 0 -27 -70 -105 -95 -105 -9 0 -23 -7 -32 -15 -8 -8 -19 -13 -24 -10 -13 9
-49 -13 -49 -30 0 -12 70 -75 84 -75 3 0 6 7 6 16 0 11 6 14 20 9 12 -4 20 -2
20 5 0 7 8 9 22 5 17 -6 20 -4 14 10 -5 14 -3 15 6 8 17 -14 58 2 58 22 0 8 4
15 9 15 17 0 61 49 55 63 -3 8 1 21 9 29 16 16 21 92 6 82 -5 -3 -9 0 -9 5 0
6 10 11 21 11 18 0 19 2 9 15 -7 8 -9 15 -4 15 4 0 -1 7 -12 15 -11 8 -14 14
-6 15 10 0 10 5 1 21 -6 12 -9 29 -6 39 6 23 -10 50 -30 50 -9 0 -13 3 -10 7
9 8 -22 43 -39 43 -9 0 -12 -20 -12 -69z m-155 -356 c0 -8 -4 -12 -9 -9 -5 3
-6 10 -3 15 9 13 12 11 12 -6z"/>
<path d="M845 1169 c-22 -11 -29 -17 -15 -14 14 4 32 7 41 8 9 1 16 7 16 14 0
7 -1 13 -1 13 -1 -1 -19 -10 -41 -21z"/>
<path d="M810 1119 c0 -5 5 -7 10 -4 6 3 10 8 10 11 0 2 -4 4 -10 4 -5 0 -10
-5 -10 -11z"/>
<path d="M122 1108 c-32 -39 -12 -123 32 -134 30 -7 44 1 56 30 l9 21 7 -23
c8 -28 24 -24 43 10 12 21 13 33 3 67 -11 35 -17 41 -41 41 -34 0 -46 -13 -56
-57 -7 -34 -18 -42 -31 -21 -4 6 1 17 10 24 21 15 18 47 -5 52 -9 1 -21 -3
-27 -10z m109 -71 c-8 -8 -11 -7 -11 4 0 20 13 34 18 19 3 -7 -1 -17 -7 -23z"/>
<path d="M1980 1093 c-1 -10 -3 -41 -6 -70 l-5 -51 68 -7 c37 -4 75 -7 83 -8
18 -2 37 120 21 136 -19 19 -41 -1 -41 -38 0 -21 -5 -35 -12 -35 -8 0 -13 14
-13 37 0 48 -28 54 -33 8 -6 -52 -22 -53 -22 -2 0 40 -3 47 -20 47 -12 0 -20
-7 -20 -17z"/>
<path d="M864 1021 c4 -5 0 -12 -6 -14 -8 -3 -6 -6 5 -6 9 -1 17 6 17 14 0 8
-5 15 -11 15 -5 0 -8 -4 -5 -9z"/>
<path d="M207 926 c-44 -11 -76 -24 -74 -30 3 -6 10 -37 17 -69 12 -50 16 -57
34 -55 12 2 20 8 20 13 -1 6 -5 25 -9 44 -10 45 16 38 28 -8 6 -24 12 -31 23
-27 9 3 17 6 19 6 2 0 -1 15 -6 32 -11 41 -11 48 1 48 5 0 12 -16 16 -35 7
-40 14 -47 34 -35 11 7 12 17 0 67 -7 32 -16 61 -19 64 -3 3 -41 -4 -84 -15z"/>
<path d="M1956 905 c-8 -9 -18 -32 -22 -52 -6 -31 -3 -39 16 -55 30 -25 37
-23 72 17 17 19 35 32 39 29 12 -7 -1 -34 -16 -34 -12 0 -25 -21 -25 -41 0
-16 46 -10 62 9 39 44 28 117 -18 128 -23 6 -32 1 -60 -32 -18 -21 -33 -34
-34 -27 0 7 6 16 14 20 7 4 17 18 20 31 6 18 3 22 -13 22 -11 0 -26 -7 -35
-15z"/>
<path d="M316 777 c-16 -11 -17 -17 -7 -36 11 -20 9 -23 -38 -44 -53 -23 -59
-32 -38 -61 13 -17 16 -17 65 8 50 25 51 26 57 5 6 -16 12 -19 33 -14 23 6 24
5 12 -10 -11 -14 -12 -20 -1 -38 12 -19 10 -24 -30 -58 -39 -33 -42 -38 -29
-55 8 -11 15 -21 17 -23 1 -2 24 15 50 38 46 39 48 40 63 21 13 -17 17 -17 34
-5 18 13 15 18 -39 79 -31 36 -72 97 -90 136 -19 38 -36 70 -38 70 -2 0 -11
-6 -21 -13z"/>
<path d="M1885 735 c-10 -19 -22 -32 -28 -28 -6 3 -7 1 -3 -5 4 -6 1 -21 -6
-33 -11 -18 -11 -23 2 -30 8 -5 41 -25 72 -43 l58 -34 36 61 c34 57 35 62 18
74 -16 12 -20 9 -38 -22 -11 -19 -26 -35 -34 -35 -7 0 -12 3 -10 8 2 4 10 19
18 35 11 22 11 30 1 40 -10 9 -15 8 -25 -6 -25 -41 -35 -52 -41 -45 -4 4 2 20
14 36 26 36 26 39 3 51 -15 8 -21 4 -37 -24z"/>
<path d="M853 610 c0 -25 2 -35 4 -22 2 12 2 32 0 45 -2 12 -4 2 -4 -23z"/>
<path d="M1792 598 c-18 -18 -15 -30 16 -56 l27 -23 -52 6 c-46 6 -53 4 -64
-16 -10 -20 -8 -25 17 -47 87 -71 94 -75 109 -62 21 17 19 29 -7 51 l-23 18
46 1 c44 0 70 13 68 34 0 10 -111 106 -121 106 -2 0 -9 -5 -16 -12z"/>
<path d="M502 431 c-29 -31 -52 -59 -52 -62 0 -3 8 -14 19 -23 18 -16 21 -14
70 41 56 63 60 73 33 89 -15 10 -26 4 -70 -45z"/>
<path d="M1611 423 c-18 -15 -20 -23 -13 -48 6 -16 15 -50 23 -75 7 -25 14
-48 16 -53 7 -13 43 13 43 32 0 25 33 54 47 40 11 -11 53 7 53 23 0 8 -110 85
-133 94 -8 3 -24 -3 -36 -13z m60 -66 c-1 -12 -15 -9 -19 4 -3 6 1 10 8 8 6
-3 11 -8 11 -12z"/>
<path d="M591 353 c-37 -61 -39 -69 -25 -83 14 -13 18 -12 40 15 l24 30 -10
-34 c-7 -26 -7 -37 3 -43 20 -13 29 -10 60 20 l29 27 -21 -36 c-19 -32 -19
-38 -7 -48 20 -17 28 -11 70 60 38 65 37 81 -6 95 -14 4 -28 -2 -48 -21 l-28
-26 11 40 c10 36 9 43 -8 56 -33 24 -42 18 -84 -52z"/>
<path d="M1414 317 c-3 -8 9 -44 26 -81 35 -75 42 -78 115 -35 37 22 40 26 26
47 -7 12 -14 11 -41 -3 -17 -9 -33 -15 -35 -13 -1 2 -12 24 -23 51 -15 34 -26
47 -42 47 -11 0 -23 -6 -26 -13z"/>
<path d="M833 295 c-30 -21 -46 -75 -33 -109 12 -32 71 -60 106 -52 28 7 51
40 60 84 5 26 1 36 -24 62 -34 34 -74 39 -109 15z m75 -66 c3 -30 -18 -52 -42
-43 -19 7 -21 45 -4 62 19 19 43 10 46 -19z"/>
<path d="M1309 296 c-3 -3 4 -42 15 -86 20 -78 22 -81 46 -75 14 4 26 7 27 8
1 1 -6 36 -16 77 -15 67 -19 75 -42 78 -13 2 -27 1 -30 -2z"/>
<path d="M1108 273 c-28 -4 -28 -5 -28 -83 0 -43 4 -81 9 -84 21 -13 41 7 42
43 l1 36 12 -40 c7 -22 16 -39 19 -37 4 1 13 2 21 2 8 0 18 17 24 38 l10 37 1
-37 c1 -34 4 -38 26 -38 26 0 26 0 23 83 l-3 82 -36 3 c-37 3 -37 3 -44 -45
l-7 -48 -15 48 c-7 26 -17 46 -21 46 -4 -1 -19 -4 -34 -6z"/>
</g>
</svg>
